<?xml version="1.0" encoding="UTF-8"?>
<svg width="128pt" height="128pt" version="1.1" viewBox="0 0 128 128" xmlns="http://www.w3.org/2000/svg">
 <g fill="#fff">
  <path d="m121.8 98.203c-0.82031-3.5508-4.0039-6.2031-7.7969-6.2031-1.4102 0-2.7852 0.37891-4 1.0938-0.625-0.36719-1.3008-0.63281-2-0.8125v-4.3438c7.5078-0.4375 10-3.5586 10-11.938 0-1.1055-0.89453-2-2-2-5.0625 0-8.207 0.91016-10 3.2852-1.793-2.375-4.9375-3.2852-10-3.2852-1.1055 0-2 0.89453-2 2 0 8.375 2.4922 11.504 10 11.938v4.3438c-0.69922 0.17969-1.375 0.44531-2 0.8125-1.2148-0.71484-2.5898-1.0938-4-1.0938-3.793 0-6.9766 2.6523-7.7969 6.2031-2.2344 0.51562-4.1172 1.9688-5.2031 3.9258-1.0859-1.957-2.9648-3.4102-5.2031-3.9258-0.82031-3.5508-4.0039-6.2031-7.7969-6.2031-1.4102 0-2.7852 0.37891-4 1.0938-0.625-0.36719-1.3008-0.63281-2-0.8125v-4.3438c7.5078-0.4375 10-3.5586 10-11.938 0-1.1055-0.89453-2-2-2-5.0625 0-8.207 0.91016-10 3.2852-1.793-2.375-4.9375-3.2852-10-3.2852-1.1055 0-2 0.89453-2 2 0 8.375 2.4922 11.504 10 11.938v4.3438c-0.69922 0.17969-1.375 0.44531-2 0.8125-1.2148-0.71484-2.5898-1.0938-4-1.0938-3.793 0-6.9766 2.6523-7.7969 6.2031-2.2344 0.51562-4.1172 1.9688-5.2031 3.9258-1.0859-1.957-2.9648-3.4102-5.2031-3.9258-0.82031-3.5508-4.0039-6.2031-7.7969-6.2031-1.4102 0-2.7852 0.37891-4 1.0938-0.62891-0.36719-1.3008-0.63281-2-0.8125v-4.3438c7.5078-0.4375 10-3.5586 10-11.938 0-1.1055-0.89453-2-2-2-5.0625 0-8.207 0.91016-10 3.2852-1.793-2.375-4.9375-3.2852-10-3.2852-1.1055 0-2 0.89453-2 2 0 8.375 2.4922 11.504 10 11.938v4.3438c-0.69922 0.17969-1.3711 0.44531-2 0.8125-1.2148-0.71484-2.5898-1.0938-4-1.0938-3.793 0-6.9766 2.6523-7.7969 6.2031-3.5508 0.82031-6.2031 4.0039-6.2031 7.7969v10c0 1.1055 0.89453 2 2 2h124c1.1055 0 2-0.89453 2-2v-10c0-3.793-2.6523-6.9766-6.2031-7.7969zm-7.8438-20.156c-0.23438 4.4453-1.4609 5.6758-5.9062 5.9102 0.23438-4.4453 1.4609-5.6758 5.9062-5.9102zm-15.906 0c4.4453 0.23438 5.6758 1.4648 5.9062 5.9102-4.4453-0.23828-5.6719-1.4688-5.9062-5.9102zm-26.094 0c-0.23438 4.4453-1.4609 5.6758-5.9062 5.9102 0.23438-4.4453 1.4609-5.6758 5.9062-5.9102zm-15.906 0c4.4453 0.23438 5.6758 1.4648 5.9062 5.9102-4.4453-0.23828-5.6719-1.4688-5.9062-5.9102zm-26.094 0c-0.23438 4.4453-1.4648 5.6758-5.9062 5.9102 0.23438-4.4453 1.4609-5.6758 5.9062-5.9102zm-15.906 0c4.4453 0.23438 5.6758 1.4648 5.9062 5.9102-4.4453-0.23828-5.6719-1.4688-5.9062-5.9102zm109.95 35.953h-120v-8c0-2.2031 1.793-4 4-4 1.1055 0 2-0.89453 2-2 0-2.2031 1.793-4 4-4 1.2422 0 2.1328 0.56641 2.6602 1.043 0.76172 0.6875 1.918 0.6875 2.6797 0 0.52734-0.47656 1.418-1.043 2.6602-1.043s2.1328 0.56641 2.6602 1.043c0.76172 0.6875 1.918 0.6875 2.6797 0 0.52734-0.47656 1.418-1.043 2.6602-1.043 2.207 0 4 1.7969 4 4 0 1.1055 0.89453 2 2 2 2.207 0 4 1.7969 4 4 0 1.1055 0.89453 2 2 2h2c1.1055 0 2-0.89453 2-2 0-2.2031 1.793-4 4-4 1.1055 0 2-0.89453 2-2 0-2.2031 1.793-4 4-4 1.2422 0 2.1328 0.56641 2.6602 1.043 0.76172 0.6875 1.918 0.6875 2.6797 0 0.52734-0.47656 1.418-1.043 2.6602-1.043s2.1328 0.56641 2.6602 1.043c0.76172 0.6875 1.918 0.6875 2.6797 0 0.52734-0.47656 1.418-1.043 2.6602-1.043 2.207 0 4 1.7969 4 4 0 1.1055 0.89453 2 2 2 2.207 0 4 1.7969 4 4 0 1.1055 0.89453 2 2 2h2c1.1055 0 2-0.89453 2-2 0-2.2031 1.793-4 4-4 1.1055 0 2-0.89453 2-2 0-2.2031 1.793-4 4-4 1.2422 0 2.1328 0.56641 2.6602 1.043 0.76172 0.6875 1.918 0.6875 2.6797 0 0.52734-0.47656 1.418-1.043 2.6602-1.043s2.1328 0.56641 2.6602 1.043c0.76172 0.6875 1.918 0.6875 2.6797 0 0.52734-0.47656 1.418-1.043 2.6602-1.043 2.207 0 4 1.7969 4 4 0 1.1055 0.89453 2 2 2 2.207 0 4 1.7969 4 4z"/>
  <path d="m22 62c1.1055 0 2-0.89453 2-2 0-2.9141 3.0859-6 6-6 1.1055 0 2-0.89453 2-2s-0.89453-2-2-2c-5.1406 0-10 4.8594-10 10 0 1.1055 0.89453 2 2 2z"/>
  <path d="m16 68c1.1055 0 2-0.89453 2-2v-2c0-1.1055-0.89453-2-2-2s-2 0.89453-2 2v2c0 1.1055 0.89453 2 2 2z"/>
  <path d="m22 72c1.1055 0 2-0.89453 2-2v-2c0-1.1055-0.89453-2-2-2s-2 0.89453-2 2v2c0 1.1055 0.89453 2 2 2z"/>
  <path d="m26 64v2c0 1.1055 0.89453 2 2 2s2-0.89453 2-2v-2c0-1.1055-0.89453-2-2-2s-2 0.89453-2 2z"/>
  <path d="m38 56h47.516l2.2422 2.2422c1.1328 1.1328 2.6367 1.7578 4.2422 1.7578s3.1094-0.625 4.2422-1.7578l16-16c2.3398-2.3398 2.3398-6.1445 0-8.4844l-1.5859-1.5859 4.7578-4.7578c0.78125-0.78125 0.78125-2.0469 0-2.8281l-14-14c-0.78125-0.78125-2.0469-0.78125-2.8281 0l-4.7578 4.7578-1.5859-1.5859c-2.2656-2.2656-6.2227-2.2656-8.4844 0l-16 16c-2.3398 2.3398-2.3398 6.1445 0 8.4844l5.9844 5.9844-35.84 1.7773c-1.0664 0.050782-1.9023 0.92969-1.9023 1.9961v6c0 1.1055 0.89453 2 2 2zm62-41.172 11.172 11.172-3.3438 3.3438-11.172-11.172zm-60 35.074 38.441-1.9023c0.78906-0.039062 1.4844-0.54297 1.7695-1.2812 0.28516-0.73828 0.10937-1.5742-0.45313-2.1328l-9.1719-9.1719c-0.78125-0.78125-0.78125-2.0469 0-2.8281l16-16c0.75391-0.75781 2.0703-0.75781 2.8281 0l20 20c0.78125 0.78125 0.78125 2.0469 0 2.8281l-16 16c-0.75391 0.75781-2.0703 0.75781-2.8281 0l-2.8281-2.8281c-0.375-0.375-0.88281-0.58594-1.4141-0.58594h-46.344z"/>
 </g>
</svg>
