<svg width="75" height="75" viewBox="0 0 75 75" fill="none" xmlns="http://www.w3.org/2000/svg">
<g clip-path="url(#clip0_3_3)">
<path fill-rule="evenodd" clip-rule="evenodd" d="M56.25 0C58.32 0 60 1.68 60 3.75C60 5.82 58.32 7.5 56.25 7.5H18.75C12.5363 7.5 7.5 12.5363 7.5 18.75V56.25C7.5 59.235 8.685 62.0963 10.7962 64.2038C12.9037 66.315 15.765 67.5 18.75 67.5H56.25C59.235 67.5 62.0963 66.315 64.2038 64.2038C66.315 62.0963 67.5 59.235 67.5 56.25V22.5C67.5 20.43 69.18 18.75 71.25 18.75C73.32 18.75 75 20.43 75 22.5V56.25C75 61.2225 73.0237 65.9925 69.51 69.51C65.9925 73.0238 61.2225 75 56.25 75H18.75C13.7775 75 9.0075 73.0238 5.49 69.51C1.97625 65.9925 0 61.2225 0 56.25V18.75C0 8.39625 8.39625 0 18.75 0H56.25ZM16.26 40.3013C14.7113 38.9288 14.5725 36.555 15.9488 35.01C17.3213 33.4612 19.695 33.3225 21.24 34.6987L35.0325 46.9538L68.2238 1.5375C69.4425 -0.135001 71.79 -0.498747 73.4625 0.723753C75.135 1.9425 75.4987 4.29 74.2762 5.9625L38.6512 54.7125C38.0287 55.5675 37.0762 56.115 36.0225 56.2275C34.9725 56.34 33.9225 56.0063 33.135 55.3013L16.26 40.3013Z" fill="black"/>
</g>
<defs>
<clipPath id="clip0_3_3">
<rect width="75" height="75" fill="white"/>
</clipPath>
</defs>
</svg>
