<?xml version="1.0" encoding="UTF-8"?>
<svg width="1200pt" height="1200pt" version="1.1" viewBox="0 0 1200 1200" xmlns="http://www.w3.org/2000/svg">
 <g fill="#fff">
  <path d="m1049.2 112.13c-1.3984 0.042969-2.793 0.16797-4.1758 0.36719h-295.09c-10.039-0.14453-19.715 3.7461-26.863 10.793-7.1484 7.0469-11.172 16.668-11.172 26.707s4.0234 19.656 11.172 26.703c7.1484 7.0508 16.824 10.938 26.863 10.797h209.47l-460.99 460.99v-0.003906c-7.2539 6.9844-11.398 16.594-11.492 26.664-0.097656 10.07 3.8633 19.754 10.984 26.875 7.1172 7.1211 16.805 11.078 26.875 10.984 10.066-0.097656 19.676-4.2383 26.66-11.492l460.99-460.99v209.47c-0.14062 10.035 3.7461 19.711 10.793 26.859s16.668 11.172 26.707 11.172 19.656-4.0234 26.707-11.172c7.0469-7.1484 10.934-16.824 10.793-26.859v-295.24c1.5117-10.93-1.8672-21.969-9.2305-30.18-7.3672-8.2109-17.973-12.766-29-12.445z"/>
  <path d="m525 262.5c-93.594 0-164.32-0.13281-220.68 6.2266-56.355 6.3594-101.47 19.766-133.74 52.078-32.273 32.309-45.531 77.336-51.855 133.67-6.3242 56.328-6.2266 127.05-6.2266 220.54 0 93.508-0.078125 164.25 6.3711 220.61 6.4492 56.355 20.02 101.41 52.367 133.67 32.348 32.258 77.379 45.641 133.67 52 56.293 6.3594 126.87 6.2266 220.09 6.2266 93.234 0 163.79 0.042969 220.09-6.3711 56.297-6.4141 101.41-19.859 133.74-52.148 32.324-32.289 45.773-77.34 52.223-133.67 6.4492-56.328 6.4453-126.97 6.4453-220.31l0.007812-0.003906c0.14062-10.035-3.7461-19.711-10.793-26.859-7.0508-7.1484-16.668-11.176-26.707-11.176s-19.66 4.0273-26.707 11.176c-7.0469 7.1484-10.938 16.824-10.793 26.859 0 93.273-0.32422 162.84-5.9336 211.82-5.6094 48.98-15.941 74.328-30.762 89.137-14.82 14.805-40.172 25.109-89.137 30.688-48.969 5.5781-118.49 5.8594-211.67 5.8594-93.188 0-162.7-0.25-211.67-5.7852-48.977-5.5352-74.336-15.785-89.137-30.543-14.801-14.758-25.152-40.129-30.762-89.137-5.6094-49.008-5.9336-118.61-5.9336-212.04 0-93.457 0.20703-163.08 5.7109-212.11 5.5039-49.031 15.777-74.355 30.469-89.062 14.691-14.707 40.016-25.008 89.062-30.543 49.047-5.5352 118.7-5.7852 212.26-5.7852 10.039 0.14453 19.715-3.7461 26.859-10.793 7.1484-7.0469 11.176-16.668 11.176-26.707 0-10.039-4.0273-19.656-11.176-26.703-7.1445-7.0508-16.82-10.938-26.859-10.797z"/>
 </g>
</svg>
