<svg height='100px' width='100px'  fill="#FFFFFF" xmlns="http://www.w3.org/2000/svg" xmlns:xlink="http://www.w3.org/1999/xlink" version="1.1" x="0px" y="0px" viewBox="0 0 100 100" enable-background="new 0 0 100 100" xml:space="preserve"><g display="none"><g display="inline"><path d="M33.295,99.717c-0.458,0-0.838,0-1.218,0c-1.245,0-2.49-0.008-3.735,0.008c-0.285,0.004-0.462-0.092-0.631-0.307    c-1.08-1.383-1.846-2.936-2.482-4.557c-1.256-3.199-1.923-6.539-2.292-9.941c-0.342-3.148-0.444-6.307-0.284-9.469    c0.27-5.303,1.321-10.416,3.745-15.189c2.309-4.547,5.643-8.201,9.748-11.183c3.448-2.504,7.211-4.444,11.113-6.119    c3.419-1.467,6.875-2.852,10.302-4.306c2.724-1.156,5.396-2.418,7.818-4.147c1.795-1.28,3.348-2.786,4.4-4.753    c0.828-1.55,1.226-3.211,1.293-4.959c0.004-0.113,0.012-0.226,0.023-0.446c0.108,0.205,0.174,0.313,0.227,0.427    c1.388,2.974,2.15,6.114,2.402,9.375c0.619,8.092-1.263,15.667-4.873,22.852c-2.961,5.892-6.972,10.953-12.181,15.029    c-4.901,3.834-10.412,6.321-16.566,7.329c-3.931,0.646-7.868,0.605-11.805,0.025c-0.244-0.037-0.281-0.147-0.271-0.356    c0.07-1.582,0.521-3.062,1.21-4.476c1.205-2.475,2.921-4.572,4.837-6.518c3.422-3.473,7.311-6.359,11.398-8.988    c0.967-0.619,1.957-1.203,2.938-1.803c0.108-0.066,0.215-0.137,0.289-0.266c-0.809,0.401-1.623,0.793-2.426,1.207    c-4.48,2.303-8.804,4.856-12.771,7.979c-2.199,1.729-4.251,3.615-5.904,5.894c-1.029,1.418-1.885,2.934-2.166,4.684    c-0.143,0.891-0.148,1.812-0.127,2.719c0.085,3.805,0.646,7.533,1.943,11.127c1.072,2.971,2.569,5.693,4.794,7.971    C32.42,98.943,32.833,99.291,33.295,99.717z"></path></g><path display="inline" d="M62.637,69.82c-1.332,1.349-2.734,2.617-4.229,3.787c-5.224,4.084-11.102,6.685-17.475,7.729   c-0.984,0.161-1.979,0.283-2.986,0.365c0.192,8.473,0.339,14.906,0.339,14.906s-0.201,1.859,1.203,2.461   C40.892,99.671,48.307,100,49.46,100h1.782c1.152,0,8.177-0.329,9.581-0.932c1.403-0.602,1.202-2.435,1.202-2.435   S62.327,83.343,62.637,69.82z"></path><path display="inline" d="M52.604,38.764c1.562-0.646,3.123-1.291,4.678-1.951c1.744-0.741,3.557-1.567,5.304-2.578   c-0.104-0.372-0.224-0.771-0.358-1.213c-1.104-3.61-5.967-5.966-6.566-6.869c-0.026-0.039-0.051-0.098-0.074-0.153l0,0   c-0.029-0.065-0.057-0.147-0.085-0.233c-0.009-0.03-0.019-0.057-0.026-0.09c-0.012-0.036-0.021-0.078-0.031-0.117   c-0.422-1.695-0.535-5.824-0.535-5.824S54.604,6.148,54.604,5.848c0-0.3,0.396-0.653,0.396-0.653V2.839   c0,0-0.297-0.451-0.297-0.702c0-0.207-0.087-1.022-0.312-1.444c-0.022-0.089-0.056-0.167-0.117-0.21   c-0.351-0.251-2.515-0.451-2.515-0.451S51.336,0,50.279,0c-0.037,0-0.063,0-0.098,0c-0.035,0-0.061,0-0.098,0   c-1.057,0-1.468,0.031-1.468,0.031s-0.204,0.02-0.484,0.052c-0.673,0.074-1.824,0.224-2.07,0.399   C45.71,0.733,45.49,1.886,45.49,2.136c0,0.251-0.49,0.702-0.49,0.702v2.356c0,0,0.59,0.352,0.59,0.652c0,0.3-0.11,13.89-0.11,13.89   s-0.14,5.027-0.677,6.26c-0.025,0.057-0.05,0.117-0.077,0.157c-0.602,0.903-5.502,3.259-6.605,6.869   c-1.103,3.609-1.171,4.513-1.072,8.674c0.015,0.617,0.035,2.267,0.089,4.617c2.814-1.863,5.985-3.539,9.835-5.191   C48.843,40.319,50.725,39.542,52.604,38.764z"></path></g><g display="none"><g display="inline"><path d="M38.646,53.389c0.056-0.006,0.11-0.021,0.167-0.021c0.46,0,0.945,0.143,1.322,0.408l0.649,0.455    c0.525,0.369,1.051,0.736,1.572,1.114c3.482,2.522,6.333,4.97,8.714,7.482c2.262,2.387,3.986,4.715,5.273,7.116    c1.141,2.13,1.869,4.215,2.233,6.375c0.043,0.26,0.041,0.509,0.016,0.75c0.31-0.09,0.608-0.188,0.933-0.27    c0.414-0.104,0.838-0.189,1.262-0.277c0.306-13.482,0.839-36.914,0.9-39.54c0.092-3.713,0.045-4.519-0.938-7.739    c-0.983-3.221-5.324-5.323-5.858-6.129c-0.537-0.806-0.673-5.726-0.673-5.726s-0.42-12.123-0.42-12.391S54,4.415,54,4.415V2.312    c0,0-0.115-0.402-0.115-0.626s-0.033-1.252-0.348-1.477c-0.312-0.223-2.208-0.402-2.208-0.402s-0.492-0.028-1.434-0.028    s-1.3,0.028-1.3,0.028s-1.92,0.179-2.234,0.402c-0.312,0.224-0.271,1.253-0.271,1.477S46,2.312,46,2.312v2.103    c0,0,0.184,0.313,0.184,0.582s-0.379,12.392-0.379,12.392s-0.167,4.919-0.703,5.726c-0.536,0.807-4.893,2.908-5.877,6.129    c-0.984,3.221-1.037,4.026-0.948,7.739C38.309,38.335,38.458,45.203,38.646,53.389z"></path><path d="M44.11,88.652c-0.025-0.065-0.051-0.127-0.076-0.192"></path></g><g display="inline"><path d="M38.849,55.598c0.733,0.518,1.47,1.025,2.195,1.553c3,2.173,5.852,4.518,8.406,7.211c1.909,2.015,3.612,4.182,4.928,6.637    c0.959,1.793,1.662,3.678,2,5.691c0.033,0.203-0.009,0.283-0.203,0.354c-1.735,0.639-3.364,1.475-4.804,2.646    c-2.372,1.938-3.729,4.437-4.126,7.465c-0.124,0.94-0.15,1.886-0.104,2.832c0.002,0.058,0,0.117-0.03,0.186    c-0.029-0.064-0.059-0.128-0.086-0.191c-1.373-3.33-2.473-6.756-3.443-10.221c-1.211-4.324-2.219-8.693-2.99-13.121    c-0.026-0.144-0.05-0.285-0.096-0.428c-0.291,4.833-0.059,9.653,0.366,14.464c0.426,4.812,1.059,9.589,2.169,14.335    c-0.483-0.158-0.933-0.299-1.377-0.456c-2.181-0.771-4.25-1.767-6.152-3.091c-2.199-1.531-4.034-3.398-5.308-5.781    c-0.973-1.817-1.509-3.765-1.663-5.816c-0.204-2.719,0.244-5.352,1.046-7.934c0.839-2.713,2.042-5.263,3.437-7.728    c1.677-2.96,3.612-5.747,5.69-8.438c0.041-0.053,0.073-0.111,0.11-0.166C38.824,55.598,38.836,55.598,38.849,55.598z"></path><path d="M58.05,99.822c-0.36-0.035-0.719-0.071-1.077-0.111c-0.961-0.105-1.902-0.301-2.834-0.557    c-0.029-0.008-0.056-0.023-0.1-0.04c2.336-4.539,5.297-8.589,9.04-12.062c-4.638,2.564-8.736,5.81-12.327,9.765    c-0.162-0.523-0.322-1.004-0.457-1.493c-0.482-1.744-0.743-3.519-0.656-5.335c0.184-3.805,1.855-6.758,5.074-8.818    c1.65-1.059,3.467-1.729,5.357-2.207c2.367-0.596,4.781-0.872,7.218-0.951c1.313-0.039,2.626-0.014,3.938-0.017    c0.066,0,0.133,0.007,0.211,0.011c0.006,0.116,0.013,0.219,0.017,0.323c0.051,2.198,0.017,4.396-0.216,6.587    c-0.277,2.637-0.782,5.221-1.842,7.67c-0.736,1.711-1.717,3.255-3.105,4.52c-1.639,1.49-3.579,2.318-5.764,2.604    c-0.334,0.046-0.67,0.078-1.004,0.113C59.032,99.822,58.541,99.822,58.05,99.822z"></path></g></g><g display="none"><path display="inline" d="M83.327,44.242c0,5.115-4.146,9.268-9.267,9.268c-5.117,0-9.271-4.153-9.271-9.268   c0-5.115,4.151-9.268,9.271-9.268C79.184,34.974,83.327,39.126,83.327,44.242z"></path><path display="inline" d="M64.965,53.13c0,4.601-3.729,8.327-8.326,8.327c-4.603,0-8.332-3.727-8.332-8.327   c0-4.598,3.729-8.332,8.332-8.332C61.234,44.798,64.965,48.532,64.965,53.13z"></path><circle display="inline" cx="38.094" cy="64.597" r="8.337"></circle><path display="inline" d="M61.559,71.201c0,4.177-3.387,7.562-7.566,7.562c-4.174,0-7.561-3.386-7.561-7.562   c0-4.18,3.386-7.564,7.561-7.564C58.172,63.637,61.559,67.021,61.559,71.201z"></path><path display="inline" d="M78.988,64.598c0,4.812-3.897,8.713-8.713,8.713s-8.717-3.901-8.717-8.713c0-4.815,3.9-8.718,8.717-8.718   C75.091,55.88,78.988,59.781,78.988,64.598z"></path><path display="inline" d="M49.063,82.473c0,4.284-3.475,7.758-7.761,7.758c-4.285,0-7.762-3.474-7.762-7.758   c0-4.287,3.477-7.762,7.762-7.762C45.589,74.711,49.063,78.186,49.063,82.473z"></path><circle display="inline" cx="64.965" cy="80.391" r="5.678"></circle><circle display="inline" cx="55.507" cy="92.126" r="7.572"></circle><path display="inline" d="M70.074,25.478c-1.19-0.439-2.312-1.066-3.238-1.892c-0.453-0.407-0.861-0.861-1.199-1.354   c1.098-0.394,2.092-0.951,3.018-1.569l0.019-0.012c0.048-0.031,0.089-0.07,0.125-0.115c0.245-0.303,0.466-0.65,0.604-1.05   c0.142-0.397,0.188-0.847,0.121-1.272c-0.135-0.861-0.649-1.553-1.26-2.016c-0.615-0.463-1.349-0.769-2.166-0.778   c-0.406-0.001-0.84,0.088-1.224,0.307c-0.386,0.215-0.688,0.562-0.874,0.929l-0.014,0.027c-0.012,0.023-0.021,0.047-0.028,0.073   c-0.179,0.664-0.286,1.354-0.286,2.05C63.67,19.501,63.777,20.201,64,20.86c0.033,0.101,0.086,0.192,0.124,0.29   c-0.792,0.125-1.567,0.066-2.222-0.262c-0.858-0.428-1.49-1.301-1.885-2.303c-0.396-1.008-0.598-2.128-0.664-3.257   c-0.056-0.913,0.008-1.834,0.131-2.743c0.92,0.192,1.857,0.321,2.82,0.343c0.861,0.001,1.752-0.035,2.661-0.462   c0.441-0.21,0.933-0.622,1.104-1.224c0.173-0.593,0.039-1.149-0.133-1.599c-0.008-0.018-0.018-0.038-0.026-0.055L65.9,9.571   c-0.308-0.541-0.633-1.081-1.041-1.584c-0.409-0.5-0.881-0.992-1.545-1.342c-0.633-0.366-1.611-0.463-2.328-0.07   c-0.723,0.359-1.187,0.929-1.551,1.487c-0.67,1.067-1.021,2.215-1.265,3.367c-0.209-0.05-0.42-0.095-0.627-0.15   c-0.506-0.134-1.008-0.29-1.507-0.457c0.105-0.3,0.225-0.598,0.361-0.891c2.041-2.534,3.219-5.532,2.834-9.093   c-0.121-1.122-3.059-0.444-2.924,0.784c0.223,2.07-0.164,3.919-0.975,5.579c-0.618,0.763-1.124,1.55-1.521,2.357   c-0.071,0.087-0.146,0.173-0.221,0.26C53.398,9.721,53.2,9.63,53.009,9.526c-1.415-0.787-2.775-1.762-3.716-3.127   c0.791,1.464,2.104,2.593,3.5,3.492c0.159,0.102,0.325,0.191,0.486,0.288c-3.235,3.563-8.454,6.023-12.889,7.785   c-0.843-0.272-1.741-0.422-2.674-0.422c-4.814,0-8.72,3.902-8.72,8.717c0,0.228,0.017,0.452,0.034,0.676   c-0.522-0.127-1.064-0.203-1.625-0.203c-3.766,0-6.818,3.049-6.818,6.812c0,3.767,3.052,6.816,6.818,6.816   c3.53,0,6.438-2.688,6.781-6.134c1.08,0.479,2.272,0.75,3.529,0.75c4.811,0,8.714-3.902,8.714-8.716   c0-3.041-1.559-5.714-3.917-7.274c3.399-1.408,7.093-3.197,10.153-5.508c-0.433,3.622,0.655,7.444,2.347,11.072   c-3.47,1.279-5.949,4.604-5.949,8.516c0,5.019,4.069,9.087,9.085,9.087c5.021,0,9.09-4.068,9.09-9.087   c0-5.017-4.067-9.084-9.09-9.084c-0.047,0-0.092,0.006-0.14,0.007c-2.012-4.134-3.291-8.587-2.178-12.528   c0.489,0.204,0.987,0.396,1.494,0.563c0.231,0.073,0.469,0.136,0.702,0.203c-0.159,1.053-0.225,2.116-0.17,3.184   c0.065,1.253,0.27,2.522,0.764,3.738c0.482,1.196,1.316,2.417,2.627,3.063c1.161,0.566,2.458,0.553,3.589,0.277   c0.437,0.627,0.965,1.183,1.563,1.627c1.074,0.812,2.299,1.364,3.559,1.718c1.262,0.358,2.575,0.497,3.865,0.427   C72.535,26.183,71.27,25.909,70.074,25.478z M60.639,8.815c0.269-0.443,0.606-0.829,0.961-1.009c0.348-0.19,0.7-0.172,1.11,0.026   c0.406,0.194,0.806,0.562,1.157,0.977c0.342,0.411,0.658,0.864,0.955,1.335c0.127,0.293,0.182,0.575,0.13,0.777   c-0.044,0.209-0.216,0.404-0.5,0.562c-0.575,0.314-1.38,0.423-2.154,0.447c-0.89,0.02-1.791-0.065-2.688-0.211   C59.814,10.683,60.139,9.663,60.639,8.815z M64.99,20.942c-0.041-0.118-0.098-0.23-0.131-0.352   c-0.321-1.125-0.231-2.328,0.125-3.454c0.236-0.39,0.615-0.562,1.09-0.543c0.484,0.023,1.008,0.253,1.406,0.589   c0.4,0.337,0.693,0.779,0.744,1.214c0.057,0.406-0.105,0.812-0.406,1.189C66.914,20.155,65.964,20.644,64.99,20.942z"></path><path display="inline" d="M39.789,35.444c-4.538,0-8.269,3.433-8.743,7.845c-1.099-0.542-2.331-0.856-3.639-0.856   c-4.556,0-8.244,3.688-8.244,8.238c0,4.549,3.688,8.237,8.244,8.237c4.116,0,7.517-3.023,8.129-6.969   c1.261,0.699,2.71,1.1,4.253,1.1c4.858,0,8.799-3.941,8.799-8.797C48.588,39.381,44.647,35.444,39.789,35.444z"></path></g><g display="none"><path display="inline" d="M62,93.381c0,0.127,0,0.255,0,0.383c-0.109,0.655-0.188,1.318-0.339,1.963   c-0.568,2.422-1.642,3.457-4.046,3.758c-2.629,0.33-5.26,0.502-7.89,0.5l0,0c-0.031,0-0.063,0-0.095,0c-0.032,0-0.064,0-0.097,0   l0,0c-2.63,0.002-5.26-0.17-7.888-0.5c-2.405-0.301-3.477-1.336-4.046-3.758c-0.152-0.645-0.229-1.308-0.339-1.963   c0-0.128,0-0.256,0-0.383c0.07-0.341,0.188-0.68,0.203-1.023c0.092-2.194,0.219-4.393,0.23-6.586   c0.068-13.412,0.11-26.826,0.163-40.236c0.014-3.52,1.381-6.384,4.017-8.733c2.101-1.871,3.162-4.278,2.629-7.12   c-0.719-3.843-0.33-7.631,0.401-11.396c0.381-1.964,0.98-3.866,0.626-5.916c-0.139-0.805-0.073-1.664,0.018-2.485   c0.084-0.759,0.314-1.439,0.005-2.261c-0.279-0.741-0.38-1.712-0.142-2.447c0.375-1.161,0.379-2.283,0.275-3.441   c-0.052-0.578,0.147-0.908,0.742-1.001c0.655-0.104,1.304-0.243,1.957-0.366c0.383,0,0.766,0,1.149,0c0.064,0,0.128,0,0.191,0   c0.384,0,0.768,0,1.152,0c0.651,0.124,1.302,0.262,1.956,0.366c0.594,0.093,0.793,0.423,0.741,1.001   c-0.104,1.158-0.101,2.28,0.274,3.441c0.238,0.735,0.137,1.706-0.143,2.447c-0.309,0.822-0.079,1.502,0.005,2.261   c0.091,0.822,0.156,1.681,0.019,2.485c-0.354,2.05,0.244,3.952,0.627,5.916c0.729,3.766,1.119,7.553,0.399,11.396   c-0.532,2.842,0.528,5.249,2.629,7.12c2.638,2.35,4.003,5.214,4.019,8.733c0.053,13.41,0.094,26.824,0.162,40.236   c0.012,2.193,0.138,4.392,0.229,6.586C61.812,92.701,61.932,93.04,62,93.381z M58.749,50.022c0-0.243-0.013-0.487-0.022-0.861   c-0.694,0.217-1.39,0.401-2.084,0.568c-1.277-2.072-3.935-3.5-7.012-3.5c-3.079,0-5.715,1.429-6.993,3.501   c-0.704-0.168-1.095-0.355-2.095-0.573c0,0.496,0,0.794,0,1.093c0,11.559,0,23.117,0,34.675c0,2.118-0.018,2.106,0.883,2.519   c3.127,1.432,6.279,1.845,9.459,1.675c2.542-0.14,5.061-0.675,7.547-1.966c0.236-0.123,0.327-0.305,0.326-0.909   C58.75,74.17,58.75,62.098,58.749,50.022z M49.631,35.454c-2.873,0-5.201,1.454-5.201,3.248s2.328,3.249,5.201,3.249   c2.872,0,5.201-1.454,5.201-3.249S52.503,35.454,49.631,35.454z"></path></g><g display="none"><path display="inline" d="M65.775,44.869c-0.172,15.036-0.352,30.072-0.461,45.107c-0.01,1.375,0.429,2.756,0.658,4.133   c0,0.882,0,1.762,0,2.643c-0.468,1.55-1.252,2.762-3.055,2.917c-1.253,0.108-2.507,0.345-3.759,0.332   c-3.007-0.03-6.015-0.065-9.022-0.108c-3.007,0.043-6.015,0.078-9.022,0.108c-1.252,0.013-2.505-0.224-3.758-0.332   c-1.803-0.155-2.587-1.367-3.056-2.917c0-0.881,0-1.761,0-2.643c0.231-1.377,0.669-2.758,0.659-4.133   c-0.11-15.035-0.289-30.071-0.46-45.107c-0.004-0.319-0.129-0.635-0.199-0.953c0-2.532,0-5.063,0-7.595   c0.28-0.99,0.486-2.008,0.854-2.964c1.212-3.146,3.502-5.249,6.604-6.457c1.67-0.65,2.35-1.898,2.379-3.561   c0.04-2.239,0.059-4.484-0.035-6.721c-0.121-2.917-0.401-5.829-0.534-8.746c-0.077-1.7,0.002-3.405,0.012-5.105   c0.007-1.177,0.702-1.832,1.742-2.104c1.545-0.405,3.097-0.596,4.649-0.611V0.048c0.055-0.001,0.11,0.001,0.165,0.001   c0.055,0,0.11-0.002,0.165-0.001v0.003c1.551,0.015,3.105,0.206,4.65,0.611c1.04,0.272,1.733,0.928,1.741,2.104   c0.009,1.701,0.089,3.406,0.012,5.105c-0.132,2.917-0.413,5.829-0.532,8.746c-0.095,2.237-0.075,4.482-0.036,6.721   c0.028,1.662,0.709,2.91,2.379,3.561c3.103,1.208,5.393,3.311,6.604,6.457c0.366,0.956,0.571,1.974,0.853,2.964   c0,2.532,0,5.063,0,7.595C65.904,44.233,65.779,44.549,65.775,44.869z M37.405,44.524c0,12.313,0,24.631,0,36.944   c0,2.257,0.001,2.244,1.259,2.685c4.362,1.523,8.774,1.965,13.21,1.783c3.547-0.148,7.067-0.717,10.534-2.093   c0.332-0.134,0.464-0.327,0.462-0.971c-0.013-12.864-0.009-25.728-0.011-38.592c0-0.259-0.018-0.518-0.031-0.917   c-8.482,2.021-16.913,2.006-25.424-0.004C37.405,43.888,37.405,44.207,37.405,44.524z"></path></g><g display="none"><g display="inline"><path d="M45.691,40.702c-0.003,0.03-0.007,0.061-0.012,0.09l-0.085,0.642c-0.103,0.864-0.056,1.726,0.146,2.637    c0.19,0.854,0.494,1.609,0.929,2.304c0.387,0.614,0.819,1.092,1.317,1.455c0.517,0.376,0.995,0.568,1.507,0.604    c0.443,0.031,0.887-0.07,1.317-0.33c0.348-0.21,0.653-0.501,0.935-0.891c0.411-0.568,0.698-1.225,0.885-2.011    c0.103-0.431,0.163-0.854,0.183-1.26c0.062-1.218-0.125-2.344-0.572-3.442c-0.352-0.874-0.817-1.578-1.424-2.156    c-0.484-0.464-0.979-0.757-1.511-0.899c-0.395-0.104-0.74-0.108-1.111-0.012c-0.458,0.117-0.845,0.353-1.224,0.745    c-0.449,0.463-0.792,1.045-1.05,1.78c-0.028,0.086-0.071,0.188-0.118,0.296L45.691,40.702z"></path></g><g display="inline"><path d="M24.072,15.711c1.495-0.26,2.968-0.393,4.383-0.393c6.78,0,12.659,3.01,17.475,8.947c0.489,0.604,0.964,1.22,1.477,1.888    l1.725,2.222l1.082-4.815c1.737-7.636,6.009-13.053,12.698-16.098c3.031-1.378,6.195-2.078,9.402-2.078    c9.199,0,17.764,5.909,20.824,14.369c2.643,7.317,2.357,14.917-0.849,22.593c-0.146,0.351-0.308,0.69-0.461,1.036    c0.39-0.083,0.78-0.152,1.177-0.191c1.122-0.11,2.217-0.031,3.25,0.241c0.344,0.09,0.674,0.207,0.995,0.334    c2.396-5.997,3.258-11.815,2.601-17.692c-0.101-0.907-0.229-1.813-0.354-2.718l-0.188-1.354l-0.121-0.501    c-0.223-0.591-0.433-1.187-0.646-1.784c-0.463-1.314-0.942-2.674-1.563-3.962C92.466,6.363,82.816,0.296,72.396,0.296    c-1.219,0-2.445,0.085-3.648,0.254C58.693,1.96,51.355,7.479,46.942,16.953c-0.075,0.159-0.146,0.321-0.215,0.482    c-0.272-0.209-0.543-0.418-0.812-0.626c-1.117-0.865-2.171-1.681-3.332-2.405c-5.439-3.389-11.494-4.732-17.962-3.986    C11.812,11.905-0.693,23.382,0.552,40.011c0.058,0.76,0.146,1.518,0.233,2.276l0.128,1.116l0.207,0.899    c0.044,0.123,0.091,0.244,0.139,0.365c0.082,0.208,0.165,0.416,0.22,0.629c1.165,4.537,3.151,8.769,5.904,12.578    c3.489,4.832,8.054,8.897,13.956,12.438c4.414,2.646,8.974,5.205,13.384,7.681c2.484,1.393,4.967,2.784,7.438,4.2    c7.806,4.473,13.879,8.734,19.118,13.416c0.668,0.6,1.332,1.205,2.02,1.83l1.708,1.553l0.571-1.444    c0.113-0.276,0.213-0.522,0.305-0.771c1.676-4.541,3.833-9.135,6.393-13.668c-1.268-0.461-2.396-1.049-3.34-1.574l-1.176-0.659    c-0.043-0.022-0.083-0.046-0.123-0.069c-1.629,2.889-3.145,5.889-4.496,9.004c-0.056,0.129-0.115,0.258-0.175,0.392l-1.2-0.943    c-1.308-1.032-2.582-2.036-3.877-3.017c-5.97-4.52-12.589-8.314-18.325-11.516l-2.634-1.468c-4.325-2.403-8.798-4.89-13.088-7.499    c-6.016-3.654-10.423-7.781-13.473-12.609c-1.656-2.625-2.942-5.679-3.929-9.343C5.036,38.6,5.3,33.859,7.246,29.314    C10.52,21.663,16.181,17.086,24.072,15.711z"></path></g><g display="inline"><g><path d="M73.668,80.593c-0.072-0.032-0.145-0.067-0.218-0.093c-1.095-0.376-2.118-0.9-3.128-1.462     c-0.979-0.546-1.949-1.101-2.93-1.64c-0.729-0.401-1.481-0.76-2.254-1.074c-0.908-0.371-1.842-0.668-2.806-0.855     c-0.703-0.138-1.413-0.203-2.13-0.238c-1.23-0.061-2.465-0.021-3.696,0c-1.005,0.021-2.011,0.033-3.019-0.03     c-0.69-0.042-1.377-0.122-2.057-0.259c-0.836-0.166-1.636-0.437-2.39-0.836c-1.126-0.599-2.016-1.457-2.716-2.514     c-1.03-1.556-1.523-3.265-1.461-5.128c0.029-0.851,0.179-1.683,0.431-2.497c0.487-1.57,1.301-2.956,2.356-4.206     c1.061-1.255,2.309-2.294,3.7-3.163c0.535-0.334,1.09-0.633,1.652-0.92c1.174-0.599,2.264-1.326,3.312-2.123     c1.123-0.853,2.188-1.773,3.254-2.693c0.91-0.781,1.818-1.564,2.779-2.289c0.775-0.583,1.58-1.124,2.446-1.563     c0.929-0.472,1.897-0.804,2.938-0.917c0.807-0.088,1.604-0.041,2.396,0.143c1.187,0.276,2.313,0.704,3.351,1.345     c1.129,0.699,2.031,1.625,2.742,2.742c0.571,0.896,1.012,1.861,1.373,2.859c0.381,1.053,0.734,2.114,1.094,3.176     c0.384,1.117,0.783,2.229,1.265,3.312c0.547,1.224,1.196,2.392,1.958,3.494c0.988,1.429,1.781,2.959,2.322,4.614     c0.44,1.346,0.69,2.725,0.69,4.145c0,0.984-0.116,1.956-0.399,2.898c-0.604,2.031-1.769,3.658-3.572,4.787     c-1.432,0.896-2.994,1.377-4.691,1.389c-0.443,0.003-0.884-0.048-1.32-0.109c-0.041-0.007-0.082-0.002-0.125-0.003     C74.434,80.787,74.053,80.689,73.668,80.593z"></path></g><g><path d="M86.561,28.966c0.106,0.043,0.213,0.089,0.32,0.132c1.072,0.433,1.911,1.15,2.546,2.112     c0.649,0.993,0.994,2.094,1.138,3.264c0.111,0.926,0.088,1.85-0.053,2.771c-0.369,2.375-1.344,4.474-2.873,6.32     c-0.82,0.992-1.777,1.828-2.89,2.478c-0.987,0.576-2.039,0.968-3.183,1.09c-0.785,0.083-1.562,0.033-2.317-0.204     c-1.599-0.498-2.715-1.55-3.437-3.042c-0.49-1.016-0.717-2.097-0.766-3.219c-0.035-0.73,0.008-1.458,0.133-2.18     c0.485-2.829,1.762-5.242,3.834-7.229c0.969-0.928,2.074-1.649,3.34-2.114c0.894-0.328,1.814-0.495,2.768-0.438     c0.188,0.011,0.375,0.041,0.562,0.063c0.037,0.003,0.072,0.001,0.108,0.002C86.049,28.836,86.305,28.902,86.561,28.966z"></path></g><g><path d="M43.101,39.289c0.043-0.091,0.092-0.18,0.125-0.276c0.371-1.057,0.91-2.014,1.692-2.821     c0.717-0.74,1.56-1.269,2.566-1.525c0.85-0.219,1.703-0.209,2.552,0.017c1.063,0.281,1.967,0.84,2.755,1.595     c0.938,0.892,1.617,1.957,2.102,3.148c0.604,1.493,0.854,3.048,0.776,4.656c-0.03,0.597-0.119,1.188-0.255,1.772     c-0.26,1.099-0.688,2.118-1.354,3.033c-0.483,0.669-1.063,1.234-1.771,1.661c-0.92,0.557-1.919,0.811-2.995,0.736     c-1.112-0.077-2.098-0.494-2.992-1.146c-0.836-0.608-1.505-1.374-2.055-2.246c-0.623-0.993-1.046-2.065-1.298-3.205     c-0.264-1.186-0.337-2.383-0.194-3.59c0.029-0.244,0.065-0.486,0.098-0.728c0.003-0.021-0.007-0.045-0.01-0.067     C42.931,39.966,43.016,39.628,43.101,39.289z"></path></g><g><path d="M57.877,30.507c0.331-1.283,0.852-2.506,1.63-3.61c0.593-0.84,1.295-1.565,2.16-2.126     c0.937-0.605,1.951-0.952,3.071-0.954c1.184-0.002,2.246,0.372,3.203,1.056c0.804,0.575,1.443,1.303,1.961,2.141     c0.891,1.442,1.354,3.023,1.509,4.703c0.092,0.969,0.065,1.935-0.067,2.899c-0.055,0.38-0.137,0.758-0.218,1.136     c-0.147,0.693-0.369,1.362-0.655,2.009c-0.619,1.414-1.473,2.655-2.699,3.614c-0.813,0.638-1.726,1.071-2.754,1.233     c-0.875,0.139-1.734,0.057-2.572-0.239c-1.09-0.387-1.969-1.067-2.707-1.943c-0.684-0.813-1.182-1.729-1.549-2.725     c-0.539-1.478-0.748-3.007-0.688-4.576C57.536,32.248,57.661,31.383,57.877,30.507z"></path></g><g><path d="M84.837,53.609c0.345-1.311,0.959-2.532,1.812-3.638c0.771-1.001,1.682-1.854,2.748-2.534     c1.19-0.762,2.479-1.264,3.894-1.404c0.756-0.074,1.505-0.032,2.239,0.161c1.381,0.362,2.453,1.144,3.195,2.363     c0.479,0.79,0.728,1.662,0.81,2.578c0.056,0.646,0.032,1.291-0.083,1.926c-0.083,0.44-0.202,0.875-0.322,1.306     c-0.145,0.522-0.363,1.018-0.615,1.499c-0.877,1.678-2.098,3.047-3.675,4.094c-1.124,0.746-2.347,1.251-3.69,1.439     c-0.756,0.107-1.51,0.1-2.26-0.054c-1.109-0.229-2.066-0.739-2.845-1.571c-0.663-0.715-1.081-1.559-1.304-2.502     c-0.188-0.803-0.219-1.619-0.127-2.438C84.659,54.436,84.729,54.04,84.837,53.609z"></path></g></g></g><g display="none"><path display="inline" d="M100,18.227l-4.736,0.006v80.304c0,0.809-0.654,1.463-1.464,1.463H69.741   c0.073-0.29,0.125-0.59,0.125-0.9V57.667l2.497-0.003c0.959-0.001,1.81-0.611,2.119-1.52c0.311-0.905,0.009-1.908-0.748-2.494   L57.775,41.28V18.233l-4.734-0.006L76.675,0.145L100,18.227z M81.561,20.813h-4.463v4.462h4.463V20.813z M75.941,20.813H71.48   v4.462h4.461V20.813z M75.941,26.644H71.48v4.462h4.461V26.644z M81.561,26.644h-4.463v4.462h4.463V26.644z"></path><path display="inline" d="M72.359,54.861l-4.735,0.007v43.671c0,0.806-0.655,1.461-1.461,1.461h-22.02   c0.25-0.499,0.405-1.055,0.405-1.646V85.016l2.497-0.004c0.958-0.001,1.809-0.609,2.118-1.517s0.009-1.91-0.748-2.497   l-18.277-14.17v-11.96l-4.737-0.007l23.635-18.08L72.359,54.861z M53.921,55.395h-4.462v4.463h4.462V55.395z M48.303,55.395h-4.461   v4.463h4.461V55.395z M48.303,61.227h-4.462v4.461h4.462V61.227z M53.921,61.227h-4.462v4.461h4.462V61.227z"></path><path display="inline" d="M42.302,82.963c0.001,0.018,0.004,0.03,0.004,0.045V98.54c0,0.805-0.655,1.46-1.463,1.46H6.283   c-0.808,0-1.463-0.655-1.463-1.46V83.008c0-0.015,0.004-0.027,0.004-0.045l-4.74-0.006l23.634-18.082l23.325,18.082L42.302,82.963z    M28.603,82.064h-4.462v4.461h4.462V82.064z M22.984,82.064h-4.461v4.461h4.461V82.064z M22.984,87.896h-4.462v4.461h4.462V87.896z    M28.603,87.896h-4.462v4.461h4.462V87.896z"></path></g><path fill="#FFFFFF" d="M37.46,29.67c-0.59,0.07-1.18,0.1-1.79,0.1c-0.11,0-0.23-0.01-0.34-0.01h0.27  C36.23,29.76,36.85,29.73,37.46,29.67z"></path><path fill="#FFFFFF" d="M76.158,25.981c-1.625,1.617-4.044,3.698-7.171,5.33c1.08,1.875,1.917,4.003,2.499,6.366l1.187,4.867  l-5.115,0.919c-0.181,0.038-1.86,0.325-4.208,0.325c-5.386,0-9.969-1.439-13.393-4.104c-3.395,4.021-8.173,6.217-13.853,6.217  c-1.197,0-2.454-0.095-3.72-0.293c-2.111-0.321-3.785-1.92-4.162-3.976c-0.279-1.55,0.094-4.655,1.603-7.915  c-2.955-0.865-6.108-2.535-9.028-5.568c-7.724,7.229-12.525,17.32-12.525,28.495c0,21.979,18.561,39.803,41.452,39.803  c22.893,0,41.45-17.823,41.45-39.803C91.174,44.307,85.332,33.287,76.158,25.981z M14.637,59.948H25.34  c-0.113,2.331-0.036,4.706,0.305,7.105c1.1,7.874,4.542,14.892,9.54,20.51C24.716,81.941,16.92,72.026,14.637,59.948z"></path><path fill="#FFFFFF" d="M74.39,20.68c0,0-0.81,1.08-2.279,2.47c-0.7,0.67-1.561,1.41-2.561,2.14c-0.149,0.11-0.31,0.22-0.47,0.34  c-0.72,0.5-1.5,0.99-2.34,1.43c-0.21,0.11-0.41,0.22-0.63,0.32c-0.19,0.1-0.391,0.19-0.591,0.28c-0.68,0.3-1.39,0.57-2.13,0.79  c-0.22,0.07-0.449,0.13-0.67,0.19H62.69c-0.24,0.07-0.48,0.12-0.73,0.17c-0.49,0.11-1,0.19-1.52,0.24c2.64,1.8,5,4.8,6.199,9.72  c0,0-4.069,0.73-8.39-0.36c-0.3-0.07-0.59-0.16-0.89-0.25c-3.24-1.01-6.46-3.14-8.09-7.45c-0.08,0.26-0.17,0.52-0.27,0.79  s-0.21,0.55-0.32,0.83c-0.47,1.13-1.09,2.33-1.92,3.47c-0.21,0.28-0.43,0.56-0.65,0.83c-0.22,0.28-0.47,0.55-0.74,0.81  c-0.13,0.13-0.26,0.25-0.39,0.39h-0.01c-0.27,0.25-0.56,0.5-0.86,0.73c-0.15,0.12-0.31,0.24-0.47,0.34  c-0.31,0.22-0.65,0.43-0.99,0.63c-2.36,1.31-5.44,1.98-9.49,1.36c-0.27-0.04,0.25-8.03,7.25-11.73c-0.37,0.09-0.74,0.17-1.13,0.25  c-0.35,0.06-0.72,0.12-1.08,0.18c-0.25,0.03-0.5,0.06-0.74,0.08c-0.61,0.06-1.23,0.09-1.86,0.09c-0.11,0-0.23,0-0.34-0.01  c-0.01,0.01-0.03,0-0.04,0c-0.17,0-0.33-0.01-0.5-0.02c-0.11,0-0.23-0.01-0.34-0.02c-0.12-0.01-0.24-0.02-0.37-0.03  c-0.3-0.03-0.61-0.07-0.92-0.12c-0.13-0.03-0.27-0.05-0.4-0.07c-0.45-0.09-0.9-0.19-1.35-0.33c-0.31-0.09-0.61-0.19-0.92-0.31  c-2.91-1.04-5.78-3.13-8.3-6.83c-0.19-0.29,8.76-7.12,18.67-2.59c0.02,0.01,0.05,0.02,0.08,0.04c0.33,0.15,0.65,0.31,0.97,0.48  c-0.56-4.27,0.59-9.48,5.9-14.96c0,0,5.33,5.26,6.149,12.04c0.03,0.3,0.07,0.6,0.091,0.91c0.02,0.27,0.029,0.54,0.029,0.81  c0,0.2,0,0.41-0.01,0.62c0.24-0.14,0.49-0.28,0.74-0.41c0.1-0.05,0.2-0.11,0.3-0.15c0.26-0.14,0.53-0.27,0.81-0.39  c0.011-0.01,0.021-0.01,0.03-0.01c0.67-0.3,1.37-0.56,2.11-0.78C62.29,16.36,67.84,16.56,74.39,20.68z"></path></svg>