<?xml version="1.0" encoding="UTF-8" standalone="no"?>
<!DOCTYPE svg PUBLIC "-//W3C//DTD SVG 1.1//EN" "http://www.w3.org/Graphics/SVG/1.1/DTD/svg11.dtd">
<svg width="100%" height="100%" viewBox="0 0 26 30" version="1.1" xmlns="http://www.w3.org/2000/svg" xmlns:xlink="http://www.w3.org/1999/xlink" xml:space="preserve" xmlns:serif="http://www.serif.com/" style="fill-rule:evenodd;clip-rule:evenodd;stroke-linejoin:round;stroke-miterlimit:2;">
    <g transform="matrix(1,0,0,1,-289,-517)">
        <g transform="matrix(1,0,0,1,83.8417,184.473)">
            <g transform="matrix(3.92016e-17,0.640211,-0.69987,4.28547e-17,573.678,209.396)">
                <path d="M214.475,490.879C214.751,490.428 215.272,490.149 215.837,490.149C216.403,490.149 216.924,490.428 217.2,490.879C221.309,497.588 233.538,517.558 237.566,524.135C237.837,524.577 237.831,525.118 237.55,525.556C237.27,525.993 236.757,526.262 236.203,526.262C228.066,526.262 203.609,526.262 195.472,526.262C194.918,526.262 194.405,525.993 194.125,525.556C193.844,525.118 193.838,524.577 194.109,524.135C198.137,517.558 210.366,497.588 214.475,490.879Z" style="fill:white;"/>
            </g>
        </g>
    </g>
</svg>
