<svg enable-background="new 0 0 512 512" fill="#fff" height="100" viewBox="0 0 512 512" width="100" xmlns="http://www.w3.org/2000/svg"><path d="m246.3 468.1c-113.5 0-202.4-93.2-202.4-212.1 0-117 95.1-212.1 212.1-212.1s212.1 95.1 212.1 212.1c0 115-101.6 212.1-221.8 212.1zm9.7-405.2c-106.5 0-193.1 86.6-193.1 193.1 0 110.1 78.8 193.1 183.4 193.1 109.9 0 202.8-88.4 202.8-193.1 0-106.5-86.6-193.1-193.1-193.1z"/><path d="m341.4 213.3h-170.8c-5.2 0-9.5-4.2-9.5-9.5 0-5.2 4.2-9.5 9.5-9.5h170.8c5.2 0 9.5 4.2 9.5 9.5 0 5.2-4.2 9.5-9.5 9.5z"/><path d="m341.4 265.5h-170.8c-5.2 0-9.5-4.2-9.5-9.5 0-5.2 4.2-9.5 9.5-9.5h170.8c5.2 0 9.5 4.2 9.5 9.5 0 5.2-4.2 9.5-9.5 9.5z"/><path d="m341.4 317.7h-170.8c-5.2 0-9.5-4.2-9.5-9.5 0-5.2 4.2-9.5 9.5-9.5h170.8c5.2 0 9.5 4.2 9.5 9.5 0 5.2-4.2 9.5-9.5 9.5z"/></svg>