<?xml version="1.0" encoding="UTF-8" standalone="no"?>
<!DOCTYPE svg PUBLIC "-//W3C//DTD SVG 1.1//EN" "http://www.w3.org/Graphics/SVG/1.1/DTD/svg11.dtd">
<svg width="100%" height="100%" viewBox="0 0 180 48" version="1.1" xmlns="http://www.w3.org/2000/svg" xmlns:xlink="http://www.w3.org/1999/xlink" xml:space="preserve" xmlns:serif="http://www.serif.com/" style="fill-rule:evenodd;clip-rule:evenodd;stroke-linejoin:round;stroke-miterlimit:2;">
    <g transform="matrix(1,0,0,1,-15,-595)">
        <g transform="matrix(0.733597,0,0,0.733597,-180.12,364.073)">
            <g id="Credits-Bubble" serif:id="Credits Bubble" transform="matrix(1.36315,0,0,1.36315,245.53,-496.285)">
                <path d="M171,595.58C183.944,595.592 194.45,606.106 194.45,619.055C194.45,632.003 183.944,642.517 171,642.53L171,642.53L38.5,642.53L38.5,642.53L38.475,642.53C25.519,642.53 15,632.011 15,619.055C15,606.098 25.519,595.58 38.475,595.58L38.5,595.58L38.5,595.58L171,595.58L171,595.58Z" style="fill:rgb(231,231,231);"/>
            </g>
        </g>
    </g>
</svg>
