<?xml version="1.0" encoding="UTF-8"?>
<svg width="128pt" height="128pt" version="1.1" viewBox="0 0 128 128" xmlns="http://www.w3.org/2000/svg">
 <g fill="#fff">
  <path d="m80.602 80.801-9.1992-7.3984 9.3984-18.801 4-8c0.39844-0.80078 0.60156-1.6016 0.80078-2.3984 0.60156-3.3984-1.1992-6.8008-4.3984-8.3984-0.80078-0.39844-1.3984-0.60156-2.1992-0.80078-0.39844 0-0.60156-0.19922-1-0.19922l-16-0.80078c-1.1992 0-2.3984 0.39844-3.3984 1.1992l-13.602 11.199c-2.1992 1.8008-2.3984 4.8008-0.60156 7 0.80078 1 1.8008 1.3984 2.8008 1.8008 1.3984 0.39844 3 0 4.1992-1l12-10 4.6016 0.19922-11.199 22.199c-1 2-1 4-0.39844 6 0.60156 1.8008 1.8008 3.3984 3.3984 4.3984l4.1992 3.3984 8.3984 6.8008v21.398c0 2.8008 2.1992 5 5 5 2.8008 0 5-2.1992 5-5l-0.003906-23.996c0.20312-1.4023-0.59766-2.8008-1.7969-3.8008z"/>
  <path d="m54.602 77.398-3.1992 8-21.801 6c-2.6016 0.80078-4.1992 3.3984-3.3984 6.1992 0.60156 2.1992 2.6016 3.6016 4.8008 3.6016 0.39844 0 0.80078 0 1.3984-0.19922l24.199-6.6016c1.6016-0.39844 2.8008-1.6016 3.3984-3l3-7.1992-5-4c-1.6016-0.80078-2.6016-1.8008-3.3984-2.8008z"/>
  <path d="m103.2 53.602-11.801-1.6016-2.8008-4v0.19922l-5 9.8008 1 1.3984c0.80078 1 2 1.8008 3.3984 2l14 2h0.80078c2.3984 0 4.6016-1.8008 5-4.1992 0.003906-2.5977-1.7969-5.1992-4.5977-5.5977z"/>
  <path d="m96.602 24.398c0 5.4141-4.3906 9.8008-9.8008 9.8008-5.4141 0-9.8008-4.3867-9.8008-9.8008 0-5.4102 4.3867-9.7969 9.8008-9.7969 5.4102 0 9.8008 4.3867 9.8008 9.7969"/>
  <path d="m35.602 25.602c-1.1992 0-2 0.80078-2 2 0 1.1992 0.80078 2 2 2h17.199c1.1992 0 2-0.80078 2-2 0-1.1992-0.80078-2-2-2z"/>
  <path d="m41.602 40.398c0-1.1992-0.80078-2-2-2h-17.199c-1.1992 0-2 0.80078-2 2 0 1.1992 0.80078 2 2 2h17.199c1.1992 0 2-0.79688 2-2z"/>
  <path d="m26.398 62.602c0 1.1992 0.80078 2 2 2h17.199c1.1992 0 2-0.80078 2-2 0-1.1992-0.80078-2-2-2h-17.199c-1 0-2 1-2 2z"/>
 </g>
</svg>
