<svg enable-background="new 0 0 100 100" fill="#fff" height="100" viewBox="0 0 100 100" width="100" xmlns="http://www.w3.org/2000/svg"><path d="m89.5 63.8-5.9-7.3c-1.8-2.2-2.8-5-2.8-7.9v-7.9c0-12.4-7.3-23.4-18.5-28.2v-.4c0-5.3-4.3-9.6-9.6-9.6h-5.3c-5.3 0-9.6 4.3-9.6 9.6v.4c-11.2 4.9-18.5 15.9-18.5 28.2v7.9c0 2.9-1 5.6-2.8 7.9l-5.9 7.3c-2.7 3.2-3.3 7.5-1.5 11.2s5.4 6 9.5 6h13c1 9.2 8.9 16.5 18.4 16.5s17.4-7.2 18.4-16.5h13c4.1 0 7.8-2.3 9.5-6 1.8-3.7 1.2-8-1.4-11.2zm-39.5 26c-5.3 0-9.6-3.8-10.6-8.8h21.2c-1 5-5.3 8.8-10.6 8.8zm33.9-18.1c-.2.5-1 1.6-2.6 1.6h-62.7c-1.6 0-2.3-1.1-2.6-1.6-.2-.5-.7-1.8.4-3l5.9-7.3c2.9-3.6 4.5-8.1 4.5-12.7v-7.9c0-10 6.4-18.8 15.9-21.9 1.6-.5 2.6-2 2.6-3.7v-3c0-1 .9-1.9 1.9-1.9h5.3c1 0 1.9.9 1.9 1.9v3c0 1.7 1.1 3.1 2.6 3.7 9.5 3.1 15.9 11.9 15.9 21.9v7.9c0 4.6 1.6 9.1 4.5 12.7l5.9 7.3c1.3 1.2.9 2.5.6 3z"/><path d="m58.4 52.6h-8.9l11.9-14.9c.9-1.2 1.1-2.7.5-4.1-.6-1.3-2-2.2-3.5-2.2h-16.8c-2.1 0-3.9 1.7-3.9 3.9 0 2.1 1.7 3.9 3.9 3.9h8.9l-11.9 14.9c-.9 1.2-1.1 2.7-.5 4.1.6 1.3 2 2.2 3.5 2.2h16.9c2.1 0 3.9-1.7 3.9-3.9s-1.8-3.9-4-3.9z"/></svg>