<?xml version="1.0" encoding="UTF-8"?>
<svg width="128pt" height="128pt" version="1.1" viewBox="0 0 128 128" xmlns="http://www.w3.org/2000/svg">
 <path d="m124.29 105.05c5.0742 5.0781 4.8672 13.199-0.20312 18.48-5.2773 5.0742-13.406 5.0742-18.48-0.20312l-63.969-65.598c-5.4883-5.2812-8.7344-6.9062-13.203-5.4844-4.4688 1.625-10.766 1.625-16.656-2.2344-12.59-8.1211-11.773-23.355-11.773-23.355l1.0156-1.625s11.371 7.3125 12.793 8.125c1.832 1.4219 8.1211 4.2656 13.809-4.4688 5.8906-8.7344 1.0195-14.215-0.60547-15.23-1.4219-0.8125-12.793-8.3242-12.793-8.3242l1.0156-1.625s13.203-6.7031 25.586 0.60938c0 0.41016 3.0469 2.2344 4.2656 3.25 7.9258 7.1094 7.9258 15.027 6.5039 21.527-1.2266 5.8906 0 7.9219 4.6641 13zm-4.6719 4.2617c-2.6406-2.6406-6.9062-2.6406-9.7461 0-2.4336 2.6406-2.4336 7.1094 0 9.543 2.8438 2.6445 7.1094 3.0469 9.7461 0.20313 2.6406-2.4336 2.6406-7.1055 0-9.7461z" fill="#fff"/>
</svg>
