<svg height='100px' width='100px'  fill="#FFFFFF" xmlns:x="http://ns.adobe.com/Extensibility/1.0/" xmlns:i="http://ns.adobe.com/AdobeIllustrator/10.0/" xmlns:graph="http://ns.adobe.com/Graphs/1.0/" xmlns="http://www.w3.org/2000/svg" xmlns:xlink="http://www.w3.org/1999/xlink" version="1.1" x="0px" y="0px" viewBox="0 0 100 100" style="enable-background:new 0 0 100 100;" xml:space="preserve"><g><g i:extraneous="self"><g><path d="M89.5,63.8l-5.9-7.3c-1.8-2.2-2.8-5-2.8-7.9v-7.9c0-12.4-7.3-23.4-18.5-28.2v-0.4c0-5.3-4.3-9.6-9.6-9.6h-5.3     c-5.3,0-9.6,4.3-9.6,9.6v0.4c-11.2,4.9-18.5,15.9-18.5,28.2v7.9c0,2.9-1,5.6-2.8,7.9l-5.9,7.3C7.9,67,7.3,71.3,9.1,75     c1.8,3.7,5.4,6,9.5,6h13c1,9.2,8.9,16.5,18.4,16.5S67.4,90.3,68.4,81h13c4.1,0,7.8-2.3,9.5-6C92.7,71.3,92.1,67,89.5,63.8z      M50,89.8c-5.3,0-9.6-3.8-10.6-8.8h21.2C59.6,86,55.3,89.8,50,89.8z M83.9,71.7c-0.2,0.5-1,1.6-2.6,1.6H18.6     c-1.6,0-2.3-1.1-2.6-1.6c-0.2-0.5-0.7-1.8,0.4-3l5.9-7.3c2.9-3.6,4.5-8.1,4.5-12.7v-7.9c0-10,6.4-18.8,15.9-21.9     c1.6-0.5,2.6-2,2.6-3.7v-3c0-1,0.9-1.9,1.9-1.9h5.3c1,0,1.9,0.9,1.9,1.9v3c0,1.7,1.1,3.1,2.6,3.7c9.5,3.1,15.9,11.9,15.9,21.9     v7.9c0,4.6,1.6,9.1,4.5,12.7l5.9,7.3C84.6,69.9,84.2,71.2,83.9,71.7z"></path><path d="M58.4,52.6h-8.9l11.9-14.9c0.9-1.2,1.1-2.7,0.5-4.1c-0.6-1.3-2-2.2-3.5-2.2H41.6c-2.1,0-3.9,1.7-3.9,3.9     c0,2.1,1.7,3.9,3.9,3.9h8.9L38.6,54.1c-0.9,1.2-1.1,2.7-0.5,4.1c0.6,1.3,2,2.2,3.5,2.2h16.9c2.1,0,3.9-1.7,3.9-3.9     S60.6,52.6,58.4,52.6z"></path></g></g></g></svg>