<svg fill="#fff" height="100" viewBox="0 0 32 32.000001" width="100" xmlns="http://www.w3.org/2000/svg"><g fill="#fff" fill-rule="evenodd" transform="translate(0 -1020.3622)"><path d="m20.482422 1032.8633a.50005721.50005721 0 0 0 -.419922.2558l-2.5 4.5a.50005721.50005721 0 0 0 .4375.7422h5a.50005721.50005721 0 0 0 .4375-.7422l-2.5-4.5a.50005721.50005721 0 0 0 -.455078-.2558zm.01758 1.5293 1.648438 2.9687h-3.296876z"/><path d="m11.482422 1032.8633a.50005721.50005721 0 0 0 -.419922.2558l-2.5 4.5a.50005721.50005721 0 0 0 .4375.7422h5a.50005721.50005721 0 0 0 .4375-.7422l-2.5-4.5a.50005721.50005721 0 0 0 -.455078-.2558zm.01758 1.5293 1.648438 2.9687h-3.2968775z"/><path d="m13.445312 1047.5957a.50005.50005 0 0 0 -.472656.6855c.480576 1.246 1.678298 2.0726 3.013672 2.0801 1.335428.01 2.54453-.8044 3.039063-2.0449a.50050849.50050849 0 1 0 -.929688-.3711c-.343342.8613-1.176358 1.4213-2.103515 1.416-.927119-.01-1.752286-.5744-2.085938-1.4394a.50005.50005 0 0 0 -.460938-.3262z"/><path d="m9.3457031 1046.6133a.50004994.50004994 0 0 0 -.3945312.7637c1.1466391 1.8971 3.9506091 2.9845 7.0488281 2.9843 3.098266-.0001 5.902637-1.087 7.048828-2.9843a.50004994.50004994 0 1 0 -.855469-.5176c-.840855 1.3918-3.341379 2.5018-6.193359 2.5019-2.851937.0001-5.352115-1.1101-6.1933594-2.5019a.50004994.50004994 0 0 0 -.4609375-.2461z"/><path d="m25.478516 1039.3633a.50005.50005 0 0 0 -.08203.01l-4.75 1a.50005.50005 0 0 0 -.330078.2403l-.537109.9394-.332031-.664a.50005.50005 0 0 0 -.425782-.2754l-6-.25a.50005.50005 0 0 0 -.521486.4977v.293l-.646484-.6465a.50005.50005 0 0 0 -.304688-.1426l-4.9999999-.5a.50005.50005 0 0 0 -.4023437.8496l3 3a.50005.50005 0 0 0 .5390625.1114l.8222651-.3282.294922.5879a.50005.50005 0 0 0 .320313.2598l2.402344.6328a.50005.50005 0 0 0 .126953.016h1.759765a.50005.50005 0 0 0 .445313-.2695l.09961-.1934.333985.7774a.50005.50005 0 0 0 .568359.291l4.5-1a.50005.50005 0 0 0 .296875-.1973l.71875-1.0058.160156.4023a.50005.50005 0 0 0 .88086.09l2.5-3.75a.50005.50005 0 0 0 -.4375-.7754zm-1.074219 1.2402-1.292969 1.9395-.146484-.3672a.50005.50005 0 0 0 -.871094-.1035l-1.138672 1.5937-3.908203.8672-.587891-1.3672a.50005.50005 0 0 0 -.902343-.033l-.447266.8613h-1.392578l-2.121094-.5586-.398437-.7968a.50005.50005 0 0 0 -.632813-.2403l-.9433592.377-1.7773438-1.7774 3.429688.3438 1.373046 1.373a.50005.50005 0 0 0 .853516-.3537v-.9785l5.185547.2168.617187 1.2363a.50005.50005 0 0 0 .88086.024l.888672-1.5547z"/><path d="m15.984375 1027.8613c-2.056499.01-3.953955.8148-4.90625 2.2207a.50004997.50004997 0 1 0 .828125.5606c.695159-1.0263 2.293128-1.7751 4.082031-1.7813 1.788882-.01 3.396592.7325 4.107422 1.7559a.50034075.50034075 0 1 0 .822266-.5703c-.970664-1.3975-2.877119-2.1926-4.933594-2.1856z"/><path d="m21.25 1028.1113c-.517095 0-1.015682.054-1.492188.1543a.50005.50005 0 0 0 -.002 0c-.237189.051-.468133.1117-.695312.1856a.50005.50005 0 1 0 .308594.9511c.191631-.062.389604-.1147.59375-.1582.407494-.086.837604-.1328 1.287109-.1328h1.750047c3.595781 0 6 2.8611 6 6.5v6.5c0 1.819-.630197 3.6637-1.693359 4.9903-1.063163 1.3265-2.51922 2.1368-4.271485 2.0117a.50023689.50023689 0 1 0 -.07031.998c2.103835.1503 3.898281-.857 5.121094-2.3828 1.22281-1.5258 1.91406-3.5702 1.91406-5.6172v-6.5c0-4.0931-2.863781-7.5-7-7.5z"/><path d="m14.496094 1023.002a.50005.50005 0 0 0 -.269532.082l-1.5.998a.50005.50005 0 0 0 -.07617.7696l.242187.2422c.560874.5601.968403.982 1.222656 1.4121.127372.2153.219158.4343.283204.6894a.50046207.50046207 0 1 0 .970703-.2441c-.08796-.3503-.223904-.6647-.394532-.9532-.298883-.5055-.730472-.9348-1.203125-1.4101l.658204-.4356c1.001639 1.0251 1.574218 2.3942 1.574218 3.8282v.2636a.50005.50005 0 1 0 1 0v-.2636c0-1.7216-.685589-3.3728-1.904297-4.5899l-.242187-.2422a.50005.50005 0 0 0 -.361328-.1464z"/><path d="m9 1028.1113c-4.136219 0-7 3.4069-7 7.5v6.5c0 2.047.6912618 4.0914 1.9140625 5.6172s3.0172137 2.5331 5.1210937 2.3828l3.4999998-.25a.50023689.50023689 0 1 0 -.07031-.998l-3.5000002.25c-1.75232.1251-3.2083351-.6852-4.2714844-2.0117-1.0631513-1.3266-1.6933614-3.1712-1.6933614-4.9903v-6.5c0-3.6389 2.404219-6.5 6-6.5h1.75a.50005.50005 0 1 0 0-1z"/></g></svg>