<svg height='100px' width='100px'  fill="#FFFFFF" xmlns:dc="http://purl.org/dc/elements/1.1/" xmlns:cc="http://creativecommons.org/ns#" xmlns:rdf="http://www.w3.org/1999/02/22-rdf-syntax-ns#" xmlns:svg="http://www.w3.org/2000/svg" xmlns="http://www.w3.org/2000/svg" xmlns:sodipodi="http://sodipodi.sourceforge.net/DTD/sodipodi-0.dtd" xmlns:inkscape="http://www.inkscape.org/namespaces/inkscape" viewBox="0 0 32 32.000001" version="1.1" x="0px" y="0px"><g transform="translate(0,-1020.3622)"><path style="color:#000000;font-style:normal;font-variant:normal;font-weight:normal;font-stretch:normal;font-size:medium;line-height:normal;font-family:sans-serif;font-variant-ligatures:normal;font-variant-position:normal;font-variant-caps:normal;font-variant-numeric:normal;font-variant-alternates:normal;font-feature-settings:normal;text-indent:0;text-align:start;text-decoration:none;text-decoration-line:none;text-decoration-style:solid;text-decoration-color:#000000;letter-spacing:normal;word-spacing:normal;text-transform:none;writing-mode:lr-tb;direction:ltr;text-orientation:mixed;dominant-baseline:auto;baseline-shift:baseline;text-anchor:start;white-space:normal;shape-padding:0;clip-rule:nonzero;display:inline;overflow:visible;visibility:visible;opacity:1;isolation:auto;mix-blend-mode:normal;color-interpolation:sRGB;color-interpolation-filters:linearRGB;solid-color:#000000;solid-opacity:1;vector-effect:none;fill:#FFFFFF;fill-opacity:1;fill-rule:evenodd;stroke:none;stroke-width:1.00001442;stroke-linecap:round;stroke-linejoin:round;stroke-miterlimit:4;stroke-dasharray:none;stroke-dashoffset:0;stroke-opacity:1;color-rendering:auto;image-rendering:auto;shape-rendering:auto;text-rendering:auto;enable-background:accumulate" d="m 20.482422,1032.8633 a 0.50005721,0.50005721 0 0 0 -0.419922,0.2558 l -2.5,4.5 A 0.50005721,0.50005721 0 0 0 18,1038.3613 h 5 a 0.50005721,0.50005721 0 0 0 0.4375,-0.7422 l -2.5,-4.5 a 0.50005721,0.50005721 0 0 0 -0.455078,-0.2558 z m 0.01758,1.5293 1.648438,2.9687 h -3.296876 z"></path><path style="color:#000000;font-style:normal;font-variant:normal;font-weight:normal;font-stretch:normal;font-size:medium;line-height:normal;font-family:sans-serif;font-variant-ligatures:normal;font-variant-position:normal;font-variant-caps:normal;font-variant-numeric:normal;font-variant-alternates:normal;font-feature-settings:normal;text-indent:0;text-align:start;text-decoration:none;text-decoration-line:none;text-decoration-style:solid;text-decoration-color:#000000;letter-spacing:normal;word-spacing:normal;text-transform:none;writing-mode:lr-tb;direction:ltr;text-orientation:mixed;dominant-baseline:auto;baseline-shift:baseline;text-anchor:start;white-space:normal;shape-padding:0;clip-rule:nonzero;display:inline;overflow:visible;visibility:visible;opacity:1;isolation:auto;mix-blend-mode:normal;color-interpolation:sRGB;color-interpolation-filters:linearRGB;solid-color:#000000;solid-opacity:1;vector-effect:none;fill:#FFFFFF;fill-opacity:1;fill-rule:evenodd;stroke:none;stroke-width:1.00001442;stroke-linecap:round;stroke-linejoin:round;stroke-miterlimit:4;stroke-dasharray:none;stroke-dashoffset:0;stroke-opacity:1;color-rendering:auto;image-rendering:auto;shape-rendering:auto;text-rendering:auto;enable-background:accumulate" d="m 11.482422,1032.8633 a 0.50005721,0.50005721 0 0 0 -0.419922,0.2558 l -2.5,4.5 A 0.50005721,0.50005721 0 0 0 9,1038.3613 h 5 a 0.50005721,0.50005721 0 0 0 0.4375,-0.7422 l -2.5,-4.5 a 0.50005721,0.50005721 0 0 0 -0.455078,-0.2558 z m 0.01758,1.5293 1.648438,2.9687 H 9.8515625 Z"></path><path style="color:#000000;font-style:normal;font-variant:normal;font-weight:normal;font-stretch:normal;font-size:medium;line-height:normal;font-family:sans-serif;font-variant-ligatures:normal;font-variant-position:normal;font-variant-caps:normal;font-variant-numeric:normal;font-variant-alternates:normal;font-feature-settings:normal;text-indent:0;text-align:start;text-decoration:none;text-decoration-line:none;text-decoration-style:solid;text-decoration-color:#000000;letter-spacing:normal;word-spacing:normal;text-transform:none;writing-mode:lr-tb;direction:ltr;text-orientation:mixed;dominant-baseline:auto;baseline-shift:baseline;text-anchor:start;white-space:normal;shape-padding:0;clip-rule:nonzero;display:inline;overflow:visible;visibility:visible;opacity:1;isolation:auto;mix-blend-mode:normal;color-interpolation:sRGB;color-interpolation-filters:linearRGB;solid-color:#000000;solid-opacity:1;vector-effect:none;fill:#FFFFFF;fill-opacity:1;fill-rule:evenodd;stroke:none;stroke-width:1;stroke-linecap:round;stroke-linejoin:round;stroke-miterlimit:4;stroke-dasharray:none;stroke-dashoffset:0;stroke-opacity:1;color-rendering:auto;image-rendering:auto;shape-rendering:auto;text-rendering:auto;enable-background:accumulate" d="m 13.445312,1047.5957 a 0.50005,0.50005 0 0 0 -0.472656,0.6855 c 0.480576,1.246 1.678298,2.0726 3.013672,2.0801 1.335428,0.01 2.54453,-0.8044 3.039063,-2.0449 a 0.50050849,0.50050849 0 1 0 -0.929688,-0.3711 c -0.343342,0.8613 -1.176358,1.4213 -2.103515,1.416 -0.927119,-0.01 -1.752286,-0.5744 -2.085938,-1.4394 a 0.50005,0.50005 0 0 0 -0.460938,-0.3262 z"></path><path style="color:#000000;font-style:normal;font-variant:normal;font-weight:normal;font-stretch:normal;font-size:medium;line-height:normal;font-family:sans-serif;font-variant-ligatures:normal;font-variant-position:normal;font-variant-caps:normal;font-variant-numeric:normal;font-variant-alternates:normal;font-feature-settings:normal;text-indent:0;text-align:start;text-decoration:none;text-decoration-line:none;text-decoration-style:solid;text-decoration-color:#000000;letter-spacing:normal;word-spacing:normal;text-transform:none;writing-mode:lr-tb;direction:ltr;text-orientation:mixed;dominant-baseline:auto;baseline-shift:baseline;text-anchor:start;white-space:normal;shape-padding:0;clip-rule:nonzero;display:inline;overflow:visible;visibility:visible;opacity:1;isolation:auto;mix-blend-mode:normal;color-interpolation:sRGB;color-interpolation-filters:linearRGB;solid-color:#000000;solid-opacity:1;vector-effect:none;fill:#FFFFFF;fill-opacity:1;fill-rule:evenodd;stroke:none;stroke-width:0.99999988;stroke-linecap:round;stroke-linejoin:round;stroke-miterlimit:4;stroke-dasharray:none;stroke-dashoffset:0;stroke-opacity:1;color-rendering:auto;image-rendering:auto;shape-rendering:auto;text-rendering:auto;enable-background:accumulate" d="m 9.3457031,1046.6133 a 0.50004994,0.50004994 0 0 0 -0.3945312,0.7637 c 1.1466391,1.8971 3.9506091,2.9845 7.0488281,2.9843 3.098266,-10e-5 5.902637,-1.087 7.048828,-2.9843 a 0.50004994,0.50004994 0 1 0 -0.855469,-0.5176 c -0.840855,1.3918 -3.341379,2.5018 -6.193359,2.5019 -2.851937,10e-5 -5.352115,-1.1101 -6.1933594,-2.5019 a 0.50004994,0.50004994 0 0 0 -0.4609375,-0.2461 z"></path><path style="color:#000000;font-style:normal;font-variant:normal;font-weight:normal;font-stretch:normal;font-size:medium;line-height:normal;font-family:sans-serif;font-variant-ligatures:normal;font-variant-position:normal;font-variant-caps:normal;font-variant-numeric:normal;font-variant-alternates:normal;font-feature-settings:normal;text-indent:0;text-align:start;text-decoration:none;text-decoration-line:none;text-decoration-style:solid;text-decoration-color:#000000;letter-spacing:normal;word-spacing:normal;text-transform:none;writing-mode:lr-tb;direction:ltr;text-orientation:mixed;dominant-baseline:auto;baseline-shift:baseline;text-anchor:start;white-space:normal;shape-padding:0;clip-rule:nonzero;display:inline;overflow:visible;visibility:visible;opacity:1;isolation:auto;mix-blend-mode:normal;color-interpolation:sRGB;color-interpolation-filters:linearRGB;solid-color:#000000;solid-opacity:1;vector-effect:none;fill:#FFFFFF;fill-opacity:1;fill-rule:evenodd;stroke:none;stroke-width:1;stroke-linecap:round;stroke-linejoin:round;stroke-miterlimit:4;stroke-dasharray:none;stroke-dashoffset:0;stroke-opacity:1;color-rendering:auto;image-rendering:auto;shape-rendering:auto;text-rendering:auto;enable-background:accumulate" d="m 25.478516,1039.3633 a 0.50005,0.50005 0 0 0 -0.08203,0.01 l -4.75,1 a 0.50005,0.50005 0 0 0 -0.330078,0.2403 l -0.537109,0.9394 -0.332031,-0.664 a 0.50005,0.50005 0 0 0 -0.425782,-0.2754 l -6,-0.25 A 0.50005,0.50005 0 0 0 12.5,1040.8613 v 0.293 l -0.646484,-0.6465 a 0.50005,0.50005 0 0 0 -0.304688,-0.1426 l -4.9999999,-0.5 a 0.50005,0.50005 0 0 0 -0.4023437,0.8496 l 3,3 a 0.50005,0.50005 0 0 0 0.5390625,0.1114 l 0.8222651,-0.3282 0.294922,0.5879 a 0.50005,0.50005 0 0 0 0.320313,0.2598 l 2.402344,0.6328 a 0.50005,0.50005 0 0 0 0.126953,0.016 h 1.759765 a 0.50005,0.50005 0 0 0 0.445313,-0.2695 l 0.09961,-0.1934 0.333985,0.7774 a 0.50005,0.50005 0 0 0 0.568359,0.291 l 4.5,-1 a 0.50005,0.50005 0 0 0 0.296875,-0.1973 l 0.71875,-1.0058 0.160156,0.4023 a 0.50005,0.50005 0 0 0 0.88086,0.09 l 2.5,-3.75 a 0.50005,0.50005 0 0 0 -0.4375,-0.7754 z m -1.074219,1.2402 -1.292969,1.9395 -0.146484,-0.3672 a 0.50005,0.50005 0 0 0 -0.871094,-0.1035 l -1.138672,1.5937 -3.908203,0.8672 -0.587891,-1.3672 a 0.50005,0.50005 0 0 0 -0.902343,-0.033 l -0.447266,0.8613 h -1.392578 l -2.121094,-0.5586 -0.398437,-0.7968 a 0.50005,0.50005 0 0 0 -0.632813,-0.2403 l -0.9433592,0.377 -1.7773438,-1.7774 3.429688,0.3438 1.373046,1.373 A 0.50005,0.50005 0 0 0 13.5,1042.3613 v -0.9785 l 5.185547,0.2168 0.617187,1.2363 a 0.50005,0.50005 0 0 0 0.88086,0.024 l 0.888672,-1.5547 z"></path><path style="color:#000000;font-style:normal;font-variant:normal;font-weight:normal;font-stretch:normal;font-size:medium;line-height:normal;font-family:sans-serif;font-variant-ligatures:normal;font-variant-position:normal;font-variant-caps:normal;font-variant-numeric:normal;font-variant-alternates:normal;font-feature-settings:normal;text-indent:0;text-align:start;text-decoration:none;text-decoration-line:none;text-decoration-style:solid;text-decoration-color:#000000;letter-spacing:normal;word-spacing:normal;text-transform:none;writing-mode:lr-tb;direction:ltr;text-orientation:mixed;dominant-baseline:auto;baseline-shift:baseline;text-anchor:start;white-space:normal;shape-padding:0;clip-rule:nonzero;display:inline;overflow:visible;visibility:visible;opacity:1;isolation:auto;mix-blend-mode:normal;color-interpolation:sRGB;color-interpolation-filters:linearRGB;solid-color:#000000;solid-opacity:1;vector-effect:none;fill:#FFFFFF;fill-opacity:1;fill-rule:evenodd;stroke:none;stroke-width:0.99999994;stroke-linecap:round;stroke-linejoin:round;stroke-miterlimit:4;stroke-dasharray:none;stroke-dashoffset:0;stroke-opacity:1;color-rendering:auto;image-rendering:auto;shape-rendering:auto;text-rendering:auto;enable-background:accumulate" d="m 15.984375,1027.8613 c -2.056499,0.01 -3.953955,0.8148 -4.90625,2.2207 a 0.50004997,0.50004997 0 1 0 0.828125,0.5606 c 0.695159,-1.0263 2.293128,-1.7751 4.082031,-1.7813 1.788882,-0.01 3.396592,0.7325 4.107422,1.7559 a 0.50034075,0.50034075 0 1 0 0.822266,-0.5703 c -0.970664,-1.3975 -2.877119,-2.1926 -4.933594,-2.1856 z"></path><path style="color:#000000;font-style:normal;font-variant:normal;font-weight:normal;font-stretch:normal;font-size:medium;line-height:normal;font-family:sans-serif;font-variant-ligatures:normal;font-variant-position:normal;font-variant-caps:normal;font-variant-numeric:normal;font-variant-alternates:normal;font-feature-settings:normal;text-indent:0;text-align:start;text-decoration:none;text-decoration-line:none;text-decoration-style:solid;text-decoration-color:#000000;letter-spacing:normal;word-spacing:normal;text-transform:none;writing-mode:lr-tb;direction:ltr;text-orientation:mixed;dominant-baseline:auto;baseline-shift:baseline;text-anchor:start;white-space:normal;shape-padding:0;clip-rule:nonzero;display:inline;overflow:visible;visibility:visible;opacity:1;isolation:auto;mix-blend-mode:normal;color-interpolation:sRGB;color-interpolation-filters:linearRGB;solid-color:#000000;solid-opacity:1;vector-effect:none;fill:#FFFFFF;fill-opacity:1;fill-rule:evenodd;stroke:none;stroke-width:1;stroke-linecap:round;stroke-linejoin:round;stroke-miterlimit:4;stroke-dasharray:none;stroke-dashoffset:0;stroke-opacity:1;color-rendering:auto;image-rendering:auto;shape-rendering:auto;text-rendering:auto;enable-background:accumulate" d="m 21.25,1028.1113 c -0.517095,0 -1.015682,0.054 -1.492188,0.1543 a 0.50005,0.50005 0 0 0 -0.002,0 c -0.237189,0.051 -0.468133,0.1117 -0.695312,0.1856 a 0.50005,0.50005 0 1 0 0.308594,0.9511 c 0.191631,-0.062 0.389604,-0.1147 0.59375,-0.1582 0.407494,-0.086 0.837604,-0.1328 1.287109,-0.1328 H 23 c 3.595781,0 6,2.8611 6,6.5 v 6.5 c 0,1.819 -0.630197,3.6637 -1.693359,4.9903 -1.063163,1.3265 -2.51922,2.1368 -4.271485,2.0117 a 0.50023689,0.50023689 0 1 0 -0.07031,0.998 c 2.103835,0.1503 3.898281,-0.857 5.121094,-2.3828 C 29.30875,1046.2027 30,1044.1583 30,1042.1113 v -6.5 c 0,-4.0931 -2.863781,-7.5 -7,-7.5 z"></path><path style="color:#000000;font-style:normal;font-variant:normal;font-weight:normal;font-stretch:normal;font-size:medium;line-height:normal;font-family:sans-serif;font-variant-ligatures:normal;font-variant-position:normal;font-variant-caps:normal;font-variant-numeric:normal;font-variant-alternates:normal;font-feature-settings:normal;text-indent:0;text-align:start;text-decoration:none;text-decoration-line:none;text-decoration-style:solid;text-decoration-color:#000000;letter-spacing:normal;word-spacing:normal;text-transform:none;writing-mode:lr-tb;direction:ltr;text-orientation:mixed;dominant-baseline:auto;baseline-shift:baseline;text-anchor:start;white-space:normal;shape-padding:0;clip-rule:nonzero;display:inline;overflow:visible;visibility:visible;opacity:1;isolation:auto;mix-blend-mode:normal;color-interpolation:sRGB;color-interpolation-filters:linearRGB;solid-color:#000000;solid-opacity:1;vector-effect:none;fill:#FFFFFF;fill-opacity:1;fill-rule:evenodd;stroke:none;stroke-width:1px;stroke-linecap:round;stroke-linejoin:round;stroke-miterlimit:4;stroke-dasharray:none;stroke-dashoffset:0;stroke-opacity:1;color-rendering:auto;image-rendering:auto;shape-rendering:auto;text-rendering:auto;enable-background:accumulate" d="m 14.496094,1023.002 a 0.50005,0.50005 0 0 0 -0.269532,0.082 l -1.5,0.998 a 0.50005,0.50005 0 0 0 -0.07617,0.7696 l 0.242187,0.2422 c 0.560874,0.5601 0.968403,0.982 1.222656,1.4121 0.127372,0.2153 0.219158,0.4343 0.283204,0.6894 a 0.50046207,0.50046207 0 1 0 0.970703,-0.2441 c -0.08796,-0.3503 -0.223904,-0.6647 -0.394532,-0.9532 -0.298883,-0.5055 -0.730472,-0.9348 -1.203125,-1.4101 l 0.658204,-0.4356 c 1.001639,1.0251 1.574218,2.3942 1.574218,3.8282 v 0.2636 a 0.50005,0.50005 0 1 0 1,0 v -0.2636 c 0,-1.7216 -0.685589,-3.3728 -1.904297,-4.5899 l -0.242187,-0.2422 a 0.50005,0.50005 0 0 0 -0.361328,-0.1464 z"></path><path style="color:#000000;font-style:normal;font-variant:normal;font-weight:normal;font-stretch:normal;font-size:medium;line-height:normal;font-family:sans-serif;font-variant-ligatures:normal;font-variant-position:normal;font-variant-caps:normal;font-variant-numeric:normal;font-variant-alternates:normal;font-feature-settings:normal;text-indent:0;text-align:start;text-decoration:none;text-decoration-line:none;text-decoration-style:solid;text-decoration-color:#000000;letter-spacing:normal;word-spacing:normal;text-transform:none;writing-mode:lr-tb;direction:ltr;text-orientation:mixed;dominant-baseline:auto;baseline-shift:baseline;text-anchor:start;white-space:normal;shape-padding:0;clip-rule:nonzero;display:inline;overflow:visible;visibility:visible;opacity:1;isolation:auto;mix-blend-mode:normal;color-interpolation:sRGB;color-interpolation-filters:linearRGB;solid-color:#000000;solid-opacity:1;vector-effect:none;fill:#FFFFFF;fill-opacity:1;fill-rule:evenodd;stroke:none;stroke-width:1;stroke-linecap:round;stroke-linejoin:round;stroke-miterlimit:4;stroke-dasharray:none;stroke-dashoffset:0;stroke-opacity:1;color-rendering:auto;image-rendering:auto;shape-rendering:auto;text-rendering:auto;enable-background:accumulate" d="m 9,1028.1113 c -4.136219,0 -7,3.4069 -7,7.5 v 6.5 c 0,2.047 0.6912618,4.0914 1.9140625,5.6172 1.2228007,1.5258 3.0172137,2.5331 5.1210937,2.3828 l 3.4999998,-0.25 a 0.50023689,0.50023689 0 1 0 -0.07031,-0.998 l -3.5000002,0.25 c -1.75232,0.1251 -3.2083351,-0.6852 -4.2714844,-2.0117 C 3.6302101,1045.775 3,1043.9304 3,1042.1113 v -6.5 c 0,-3.6389 2.404219,-6.5 6,-6.5 h 1.75 a 0.50005,0.50005 0 1 0 0,-1 z"></path></g></svg>