<svg clip-rule="evenodd" fill-rule="evenodd" stroke-linejoin="round" stroke-miterlimit="2" viewBox="0 0 37 37" xmlns="http://www.w3.org/2000/svg" xmlns:xlink="http://www.w3.org/1999/xlink"><clipPath id="a"><path clip-rule="evenodd" d="m0 0h100v100h-100z"/></clipPath><g clip-path="url(#a)" transform="matrix(.36 0 0 .36 .658 .908)"><path d="m50 23.529h-18.176l13.529-13.47c1.107-1.107 1.73-2.611 1.73-4.177 0-3.24-2.666-5.906-5.907-5.906-1.565 0-3.069.623-4.176 1.73l-23.529 23.529c-2.266 2.28-2.266 6.015 0 8.294l23.529 23.53c1.105 1.112 2.609 1.738 4.176 1.738 3.229 0 5.886-2.656 5.886-5.885 0-1.553-.615-3.045-1.709-4.147l-13.529-13.471h18.176.035c14.521 0 26.47 11.949 26.47 26.471 0 14.521-11.949 26.47-26.47 26.47-9.922 0-19.044-5.579-23.564-14.411-.973-2.05-3.047-3.361-5.315-3.361-3.227 0-5.882 2.655-5.882 5.882 0 .99.25 1.964.726 2.831 6.528 12.763 19.706 20.824 34.041 20.824 20.975 0 38.235-17.26 38.235-38.235 0-20.976-17.26-38.236-38.235-38.236-.014 0-.027 0-.041 0z" fill="#fff" fill-rule="nonzero"/></g></svg>