<svg clip-rule="evenodd" fill-rule="evenodd" stroke-linejoin="round" stroke-miterlimit="2" viewBox="0 0 26 30" xmlns="http://www.w3.org/2000/svg"><path d="m214.475 490.879c.276-.451.797-.73 1.362-.73.566 0 1.087.279 1.363.73 4.109 6.709 16.338 26.679 20.366 33.256.271.442.265.983-.016 1.421-.28.437-.793.706-1.347.706-8.137 0-32.594 0-40.731 0-.554 0-1.067-.269-1.347-.706-.281-.438-.287-.979-.016-1.421 4.028-6.577 16.257-26.547 20.366-33.256z" fill="#fff" transform="matrix(0 .640211 -.69987 0 368.5197 -123.131)"/></svg>