<?xml version="1.0" encoding="UTF-8" standalone="no"?>
<!DOCTYPE svg PUBLIC "-//W3C//DTD SVG 1.1//EN" "http://www.w3.org/Graphics/SVG/1.1/DTD/svg11.dtd">
<svg width="100%" height="100%" viewBox="0 0 37 37" version="1.1" xmlns="http://www.w3.org/2000/svg" xmlns:xlink="http://www.w3.org/1999/xlink" xml:space="preserve" xmlns:serif="http://www.serif.com/" style="fill-rule:evenodd;clip-rule:evenodd;stroke-linejoin:round;stroke-miterlimit:2;">
    <g transform="matrix(1,0,0,1,-195,-513)">
        <g transform="matrix(1,0,0,1,-84.2,184.473)">
            <g id="noun_restart_669115.svg" transform="matrix(0.36,0,0,0.36,297.858,347.435)">
                <g transform="matrix(1,0,0,1,-50,-50)">
                    <clipPath id="_clip1">
                        <rect x="0" y="0" width="100" height="100"/>
                    </clipPath>
                    <g clip-path="url(#_clip1)">
                        <g>
                            <g>
                                <path d="M50,23.529L31.824,23.529L45.353,10.059C46.46,8.952 47.083,7.448 47.083,5.882C47.083,2.642 44.417,-0.024 41.176,-0.024C39.611,-0.024 38.107,0.599 37,1.706L13.471,25.235C11.205,27.515 11.205,31.25 13.471,33.529L37,57.059C38.105,58.171 39.609,58.797 41.176,58.797C44.405,58.797 47.062,56.141 47.062,52.912C47.062,51.359 46.447,49.867 45.353,48.765L31.824,35.294L50,35.294C50.012,35.294 50.023,35.294 50.035,35.294C64.556,35.294 76.505,47.243 76.505,61.765C76.505,76.286 64.556,88.235 50.035,88.235C40.113,88.235 30.991,82.656 26.471,73.824C25.498,71.774 23.424,70.463 21.156,70.463C17.929,70.463 15.274,73.118 15.274,76.345C15.274,77.335 15.524,78.309 16,79.176C22.528,91.939 35.706,100 50.041,100C71.016,100 88.276,82.74 88.276,61.765C88.276,40.789 71.016,23.529 50.041,23.529C50.027,23.529 50.014,23.529 50,23.529Z" style="fill:white;fill-rule:nonzero;"/>
                            </g>
                        </g>
                    </g>
                </g>
            </g>
        </g>
    </g>
</svg>
