<?xml version="1.0" encoding="UTF-8"?>
<svg width="128pt" height="128pt" version="1.1" viewBox="0 0 128 128" xmlns="http://www.w3.org/2000/svg">
 <g fill="#fff">
  <path d="m64 20.75c-27.898 0-50.512 22.613-50.512 50.5s22.613 50.512 50.512 50.512 50.512-22.613 50.512-50.512-22.613-50.5-50.512-50.5zm0 91.562c-22.676 0-41.062-18.387-41.062-41.062s18.387-41.062 41.062-41.062 41.062 18.387 41.062 41.062-18.387 41.062-41.062 41.062z"/>
  <path d="m64 19.5c-10.688 0.011719-21.273 3.3359-29.988 9.5742-8.5 6.0742-15.039 14.625-18.648 24.438-3.7383 10.176-4.1133 21.562-1.1367 31.988 2.8633 9.9883 8.7891 19.051 16.812 25.648 8.2383 6.7734 18.387 10.887 29.023 11.711 10.699 0.82422 21.586-1.7617 30.762-7.3359 8.8359-5.375 16.023-13.414 20.289-22.836 4.5-9.9609 5.7617-21.188 3.5742-31.898-2.0859-10.227-7.375-19.727-14.914-26.926-7.5859-7.25-17.363-12.137-27.75-13.727-2.6484-0.42578-5.3359-0.63672-8.0234-0.63672-1.6133 0-1.6133 2.5 0 2.5 10.227 0.011719 20.25 3.2109 28.586 9.1367 8.0508 5.7109 14.324 13.926 17.688 23.199 3.5508 9.75 3.9375 20.523 1.0859 30.512-2.7383 9.5508-8.3984 18.113-16.039 24.449-7.7266 6.4141-17.461 10.336-27.477 11.086-10.273 0.77344-20.613-1.6484-29.414-7-8.4688-5.1719-15.254-12.859-19.355-21.883-4.2383-9.3242-5.3984-20.023-3.3633-30.051 2-9.8359 7.0234-18.887 14.273-25.824 7.2734-6.9492 16.613-11.539 26.562-13.074 2.4609-0.375 4.9609-0.55078 7.4492-0.55078 1.6172-0.011719 1.6172-2.5117 0.003906-2.5z"/>
  <path d="m64 111.06c-8.2617-0.011719-16.336-2.5859-23.086-7.3633-6.4883-4.6016-11.562-11.227-14.289-18.688-2.875-7.875-3.2109-16.562-0.92578-24.637 2.1992-7.7617 6.7891-14.711 13-19.863 6.2266-5.1641 14.086-8.3359 22.148-8.9492 8.3008-0.625 16.637 1.3125 23.762 5.625 6.875 4.1641 12.363 10.387 15.688 17.688 3.4375 7.5391 4.375 16.199 2.7266 24.301-1.625 7.9375-5.6641 15.25-11.523 20.863-5.875 5.625-13.398 9.3242-21.438 10.574-2 0.3125-4.0391 0.44922-6.0625 0.44922-1.6133 0-1.6133 2.5 0 2.5 8.7266-0.011719 17.375-2.7266 24.488-7.8008 6.9609-4.9766 12.324-11.977 15.273-20.012 3.0508-8.2891 3.3633-17.551 0.96094-26.039-2.3242-8.1992-7.1875-15.648-13.773-21.074-6.7383-5.5391-15.012-8.8867-23.711-9.5742-8.7383-0.67578-17.625 1.4258-25.113 5.9609-7.2617 4.3984-13.164 11-16.664 18.738-3.6641 8.125-4.6875 17.25-2.9258 25.988 1.6875 8.3633 6.0117 16.148 12.176 22.051 6.1992 5.9375 14.211 9.9492 22.699 11.25 2.1758 0.32422 4.3633 0.51172 6.5742 0.51172 1.6289 0.011719 1.6289-2.4883 0.015625-2.5z"/>
  <path d="m124.23 31.828-6.2422 7.7812-31.898-25.594 6.2422-7.7812z"/>
  <path d="m86.961 14.898c2.0898-2.5859 4.1641-5.1875 6.25-7.7734h-1.7617c3.6016 2.8867 7.2109 5.7891 10.812 8.6758 5.7109 4.5859 11.426 9.1641 17.125 13.75 1.3125 1.0625 2.6367 2.1133 3.9492 3.1758v-1.7617c-2.0742 2.5859-4.1641 5.1875-6.2383 7.7734h1.7617c-3.6016-2.8867-7.2109-5.7891-10.812-8.6758-5.7109-4.5859-11.426-9.1641-17.125-13.75-1.3125-1.0625-2.6367-2.1133-3.9492-3.1758-0.52344-0.42578-1.25-0.51172-1.7617 0-0.4375 0.4375-0.52344 1.3359 0 1.7617 3.6016 2.8867 7.2109 5.7891 10.812 8.6758 5.7109 4.5859 11.426 9.1641 17.125 13.75 1.3125 1.0625 2.6367 2.1133 3.9492 3.1758 0.47656 0.38672 1.3125 0.57422 1.7617 0 2.0742-2.5859 4.1641-5.1875 6.2383-7.7734 0.38672-0.47656 0.57422-1.3125 0-1.7617-3.6016-2.8867-7.2109-5.7891-10.812-8.6758-5.7109-4.5859-11.426-9.1641-17.125-13.75-1.3125-1.0625-2.6367-2.1133-3.9492-3.1758-0.47656-0.38672-1.3125-0.57422-1.7617 0-2.0742 2.5859-4.1641 5.1875-6.2383 7.7734-0.42578 0.52344-0.51172 1.25 0 1.7617 0.42578 0.4375 1.3281 0.52734 1.75 0z"/>
  <path d="m35.676 6.2344 6.2422 7.7812-31.898 25.594-6.2422-7.7812z"/>
  <path d="m42.801 13.137c-2.0742-2.5859-4.1641-5.1875-6.2383-7.7734-0.44922-0.5625-1.2891-0.38672-1.7617 0-3.6016 2.8867-7.2109 5.7891-10.812 8.6758-5.7109 4.5859-11.426 9.1641-17.125 13.75-1.3125 1.0625-2.6367 2.1133-3.9492 3.1758-0.5625 0.44922-0.38672 1.2891 0 1.7617 2.0742 2.5859 4.1641 5.1875 6.2383 7.7734 0.44922 0.5625 1.2891 0.38672 1.7617 0 3.6016-2.8867 7.2109-5.7891 10.812-8.6758 5.7109-4.5859 11.426-9.1641 17.125-13.75 1.3125-1.0625 2.6367-2.1133 3.9492-3.1758 0.53516-0.42188 0.44922-1.3242 0-1.7617-0.52344-0.52344-1.2383-0.42578-1.7617 0-3.6016 2.8867-7.2109 5.7891-10.812 8.6758-5.7109 4.5859-11.426 9.1641-17.125 13.75-1.3125 1.0625-2.6367 2.1133-3.9492 3.1758h1.7617c-2.0742-2.5859-4.1641-5.1875-6.2383-7.7734v1.7617c3.6016-2.8867 7.2109-5.7891 10.812-8.6758 5.7109-4.5859 11.426-9.1641 17.125-13.75 1.3125-1.0625 2.6367-2.1133 3.9492-3.1758h-1.7617c2.0742 2.5859 4.1641 5.1875 6.2383 7.7734 0.42578 0.52344 1.3242 0.4375 1.7617 0 0.52344-0.52344 0.42578-1.2344 0-1.7617z"/>
  <path d="m92.898 57.199-34.734 34.738-23.062-23.062 6.625-6.6367 16.438 16.438 28.109-28.102z"/>
  <path d="m92.023 56.312c-1.1484 1.1484-2.3008 2.3008-3.4492 3.4492-2.7734 2.7734-5.5508 5.5508-8.3125 8.3125-3.3359 3.3359-6.6875 6.6875-10.023 10.023-2.8867 2.8867-5.7734 5.7734-8.6641 8.6641-0.94922 0.94922-1.9141 1.9141-2.8633 2.8633-0.44922 0.44922-0.94922 0.875-1.3633 1.3633-0.011718 0.023438-0.039062 0.039063-0.0625 0.0625h1.7617c-2.6016-2.6016-5.1992-5.1992-7.8008-7.8008-4.1367-4.1367-8.2891-8.2891-12.426-12.426-0.94922-0.94922-1.8984-1.8984-2.8516-2.8516v1.7617c2.2109-2.2109 4.4258-4.4258 6.625-6.625h-1.7617c1.8516 1.8516 3.7109 3.7109 5.5625 5.5625l10.875 10.875c0.47656 0.47656 1.2891 0.47656 1.7617 0 3.1758-3.1758 6.3633-6.3633 9.5391-9.5391 5.0391-5.0391 10.062-10.062 15.102-15.102 1.1641-1.1641 2.3125-2.3125 3.4766-3.4766h-1.7617l6.625 6.625c1.1367 1.1367 2.9141-0.625 1.7617-1.7617-2.2109-2.2109-4.4258-4.4258-6.625-6.625-0.47656-0.47656-1.2891-0.47656-1.7617 0-3.1758 3.1758-6.3633 6.3633-9.5391 9.5391-5.0391 5.0391-10.062 10.062-15.102 15.102-1.1641 1.1641-2.3125 2.3125-3.4766 3.4766h1.7617c-1.8516-1.8516-3.7109-3.7109-5.5625-5.5625-2.9375-2.9375-5.8867-5.8867-8.8242-8.8242-0.6875-0.6875-1.3633-1.3633-2.0508-2.0508-0.47656-0.47656-1.2891-0.47656-1.7617 0-2.2109 2.2109-4.4258 4.4258-6.625 6.625-0.47656 0.47656-0.47656 1.2891 0 1.7617l23.078 23.078c0.47656 0.47656 1.2891 0.47656 1.7617 0 1.1484-1.1484 2.3008-2.3008 3.4492-3.4492l27-27c1.3984-1.3984 2.875-2.7617 4.2266-4.2266l0.0625-0.0625c1.1406-1.125-0.62109-2.8984-1.7617-1.7617z"/>
 </g>
</svg>
