<svg enable-background="new 0 0 100 100" fill="#fff" height="100" viewBox="0 0 100 100" width="100" xmlns="http://www.w3.org/2000/svg"><path d="m70.8 44.7h-15.5v-15.5c0-2.9-2.4-5.3-5.3-5.3s-5.3 2.4-5.3 5.3v15.5h-15.5c-2.9 0-5.3 2.4-5.3 5.3 0 1.5.6 2.8 1.5 3.7 1 1 2.3 1.5 3.7 1.5h15.5v15.5c0 1.5.6 2.8 1.5 3.7 1 1 2.3 1.5 3.7 1.5 2.9 0 5.3-2.4 5.3-5.3v-15.3h15.5c2.9 0 5.3-2.4 5.3-5.3.1-2.9-2.2-5.3-5.1-5.3z"/><path d="m50 2.5c-26.2 0-47.5 21.3-47.5 47.5s21.3 47.5 47.5 47.5 47.5-21.3 47.5-47.5-21.3-47.5-47.5-47.5zm0 84.4c-20.4 0-36.9-16.5-36.9-36.9s16.5-36.9 36.9-36.9 36.9 16.5 36.9 36.9-16.5 36.9-36.9 36.9z"/></svg>