<?xml version="1.0" encoding="UTF-8"?>
<svg width="128pt" height="128pt" version="1.1" viewBox="0 0 128 128" xmlns="http://www.w3.org/2000/svg">
 <defs>
  <clipPath id="a">
   <path d="m23.695 24h80.609v80h-80.609z"/>
  </clipPath>
 </defs>
 <g clip-path="url(#a)">
  <path d="m26.027 89.848c-3.1953 3.1992-3.0664 8.3125 0.12891 11.637 3.3242 3.1953 8.4414 3.1953 11.637-0.12891l40.285-41.305c3.457-3.3242 5.5-4.3516 8.3125-3.4531 2.8125 1.0234 6.7812 1.0234 10.492-1.4062 7.9297-5.1133 7.4141-14.707 7.4141-14.707l-0.63672-1.0234s-7.1602 4.6055-8.0586 5.1172c-1.1523 0.89453-5.1133 2.6875-8.6953-2.8125-3.7109-5.5-0.64453-8.9531 0.37891-9.5938 0.89453-0.51172 8.0586-5.2422 8.0586-5.2422l-0.63672-1.0234s-8.3125-4.2227-16.113 0.38281c0 0.25781-1.918 1.4062-2.6875 2.0469-4.9922 4.4766-4.9922 9.4648-4.0938 13.559 0.76953 3.7109 0 4.9883-2.9375 8.1875zm2.9453 2.6875c1.6641-1.6641 4.3477-1.6641 6.1367 0 1.5312 1.6641 1.5312 4.4766 0 6.0078-1.7891 1.6641-4.4766 1.918-6.1367 0.12891-1.6641-1.5352-1.6641-4.4766 0-6.1367z" fill="#fff"/>
 </g>
</svg>
