<svg width="100" height="100" viewBox="0 0 100 100" fill="none" xmlns="http://www.w3.org/2000/svg">
<path d="M48.1055 91.4258C25.9375 91.4258 8.57422 73.2227 8.57422 50C8.57422 27.1484 27.1484 8.57422 50 8.57422C72.8516 8.57422 91.4258 27.1484 91.4258 50C91.4258 72.4609 71.582 91.4258 48.1055 91.4258ZM50 12.2852C29.1992 12.2852 12.2852 29.1992 12.2852 50C12.2852 71.5039 27.6758 87.7148 48.1055 87.7148C69.5703 87.7148 87.7148 70.4492 87.7148 50C87.7148 29.1992 70.8008 12.2852 50 12.2852Z" fill="white"/>
<path fill-rule="evenodd" clip-rule="evenodd" d="M39.5501 27.6787C40.4482 26.7738 41.9042 26.7738 42.8023 27.6787L64.3267 49.3666C64.7578 49.8011 65 50.3906 65 51.0051C65 51.6196 64.7578 52.2088 64.3267 52.6435L50.8738 66.1984C48.4898 68.6005 44.6247 68.6005 42.2407 66.1984L28.788 52.6435C26.404 50.2413 26.404 46.3467 28.788 43.9446L40.6146 32.0281L39.5501 30.9556C38.6521 30.0507 38.6521 28.5836 39.5501 27.6787ZM43.8667 35.305L38.3113 40.9027H49.4223L43.8667 35.305Z" fill="white"/>
<path d="M66.8063 57.0179C67.4927 57.099 68.1161 57.4503 68.5147 57.9916L68.5164 57.9939L68.5304 58.013L68.5683 58.0652C68.5989 58.1074 68.642 58.167 68.6959 58.2419C68.6993 58.2467 68.7025 58.2513 68.7059 58.2561C68.8232 58.4195 68.9887 58.6529 69.1866 58.9389C69.2358 59.0102 69.2872 59.0848 69.3406 59.1625C69.7135 59.7068 70.1773 60.4043 70.6437 61.1589C70.7098 61.2657 70.7762 61.3744 70.8428 61.4845C71.3093 62.2548 71.7826 63.0964 72.1601 63.9029C72.2086 64.0063 72.2581 64.1143 72.3075 64.2264C72.6535 65.0099 73 65.985 73 66.9008C73 70.2693 70.0899 73 66.5 73C62.9101 73 60 70.2693 60 66.9008C60 66.7698 60.0071 66.638 60.0201 66.5054C60.1121 65.5776 60.5007 64.6269 60.8399 63.9029C61.2713 62.9811 61.8279 62.0138 62.3563 61.1589C62.6895 60.6199 63.0213 60.11 63.3195 59.6643C63.4985 59.3969 63.6655 59.1526 63.8134 58.9389C64.0113 58.6529 64.1768 58.4195 64.2941 58.2561C64.3526 58.1743 64.3991 58.11 64.4317 58.0652L64.4696 58.013L64.4804 57.9983L64.4836 57.9939L64.4853 57.9916C64.9425 57.3706 65.6956 57 66.5 57C66.605 57 66.7072 57.006 66.8063 57.0179Z" fill="white"/>
</svg>
