<?xml version="1.0" encoding="UTF-8"?>
<svg width="128pt" height="128pt" version="1.1" viewBox="0 0 128 128" xmlns="http://www.w3.org/2000/svg">
 <path d="m121.57 9.7773-3.3516-3.3516c-0.98828-0.98828-2.3008-1.5-3.6211-1.5-0.98828 0-1.9805 0.28516-2.8477 0.86719l-15.219 10.188c-2.3516-1.2148-4.7148-1.9492-6.9023-1.9492h-0.003906c-2.1641 0-4.1016 0.67188-5.6484 1.9453-1.9102-0.66016-3.7461-1.0273-5.4492-1.0273-3.0312 0-5.6797 1.0469-7.6523 3.0234l-62.93 62.934c-1.9883 1.9883-4.8203 6.5352-1.457 14.664 4.9727 12.008 21.848 27.5 32.949 27.5 3.0312 0 5.6758-1.043 7.6523-3.0234l62.93-62.93c1.8594-1.8594 4.457-5.9609 2.0312-13.137 1.5039-1.8516 3.0508-5.3359 0.75391-10.879-0.21875-0.52734-0.48828-1.082-0.78516-1.6445l10.188-15.215c1.3594-2.0234 1.0938-4.7344-0.63672-6.4648zm-31.945 9.375c0.31641 0 0.65625 0.039062 0.99609 0.09375 0.42188 0.066406 0.86328 0.16797 1.3164 0.3125-0.082031 0.12109-0.15234 0.25391-0.23047 0.38281-0.44922 0.74609-0.76172 1.5664-0.89063 2.4453-0.15625 1.0469-0.082031 2.1641 0.22266 3.3047 0.11328 0.41406 0.24609 0.82812 0.41797 1.2422 1.5078 3.6406 6.1523 8.6914 10.836 10.004 0.74219 0.20703 1.4805 0.33203 2.2148 0.33203 0.375 0 0.73828-0.046875 1.0977-0.10547 0.89062-0.13672 1.7305-0.44141 2.4805-0.90234 0.11719-0.070313 0.23047-0.14062 0.34375-0.21875 0.13281 0.41797 0.23828 0.82812 0.30469 1.2188 0.25781 1.4766 0.035157 2.75-0.82422 3.6641-0.023437 0.027344-0.039062 0.054688-0.0625 0.078125l-5.5625 5.5625c-0.6875 0.6875-1.5898 0.99609-2.6367 0.99609-7.7266 0-23.297-16.785-18.227-21.855l3.7344-3.7305 1.832-1.832c0.023437-0.023437 0.046874-0.035156 0.070312-0.054687 0.67969-0.64062 1.5508-0.9375 2.5664-0.9375zm17.863 9.8711-1.5078 2.25c-0.003906 0.011718-0.015625 0.019531-0.019531 0.027343-0.070313 0.14453-0.15234 0.28516-0.26953 0.40625-0.19922 0.19922-0.44922 0.30469-0.71875 0.37109-0.14844 0.039063-0.30078 0.078125-0.46875 0.078125-3.168 0-9.25-6.2617-8.5898-9.1094 0.066406-0.27734 0.17188-0.53516 0.375-0.74219 0.12109-0.12109 0.26172-0.20313 0.40625-0.26953 0.011719-0.003906 0.015625-0.011718 0.027343-0.019531l2.2539-1.5078 2.2227-1.4883 13.398-8.9688 3.3516 3.3516-8.9766 13.406z" fill="#fff"/>
</svg>
