<?xml version="1.0" encoding="UTF-8" standalone="no"?>
<!DOCTYPE svg PUBLIC "-//W3C//DTD SVG 1.1//EN" "http://www.w3.org/Graphics/SVG/1.1/DTD/svg11.dtd">
<svg width="100%" height="100%" viewBox="0 0 512 512" version="1.1" xmlns="http://www.w3.org/2000/svg" xmlns:xlink="http://www.w3.org/1999/xlink" xml:space="preserve" xmlns:serif="http://www.serif.com/" style="fill-rule:evenodd;clip-rule:evenodd;stroke-linejoin:round;stroke-miterlimit:2;">
    <rect id="Artboard1" x="0" y="0" width="512" height="512" style="fill:none;"/>
    <clipPath id="_clip1">
        <rect id="Artboard11" serif:id="Artboard1" x="0" y="0" width="512" height="512"/>
    </clipPath>
    <g clip-path="url(#_clip1)">
        <g transform="matrix(5.12,0,0,5.12,-2.4869e-14,0)">
            <path d="M50,0C22.571,0 -0,22.571 0,50C0,77.429 22.571,100 50,100C77.429,100 100,77.429 100,50C100,22.571 77.429,0 50,0ZM44.49,20.89C44.913,19.927 45.521,19.057 46.28,18.33C47.035,17.598 47.916,17.009 48.88,16.59C49.864,16.159 50.926,15.938 52,15.94C53.103,15.933 54.196,16.154 55.21,16.59C56.18,16.999 57.062,17.589 57.81,18.33C58.543,19.068 59.133,19.936 59.55,20.89C59.991,21.888 60.213,22.969 60.2,24.06C60.211,25.164 59.989,26.257 59.55,27.27C59.135,28.248 58.545,29.143 57.81,29.91C57.07,30.67 56.186,31.275 55.21,31.69C54.197,32.129 53.104,32.351 52,32.34C50.912,32.353 49.834,32.131 48.84,31.69C46.871,30.825 45.302,29.245 44.45,27.27C44.014,26.256 43.793,25.163 43.8,24.06C43.805,22.967 44.04,21.886 44.49,20.89ZM66.42,78.55L37.75,78.55L37.75,71.89C42.35,71.89 44.65,70.677 44.65,68.25L44.65,47.44C44.65,44.953 42.35,43.71 37.75,43.71L37.75,37.21L59.51,37.21L59.51,68.21C59.4,70.65 61.71,71.86 66.42,71.86L66.42,78.55Z" style="fill:white;fill-rule:nonzero;"/>
        </g>
    </g>
</svg>
