<?xml version="1.0" encoding="UTF-8"?>
<svg width="128pt" height="128pt" version="1.1" viewBox="0 0 128 128" xmlns="http://www.w3.org/2000/svg">
 <g fill="#fff">
  <path d="m64.078 68.359c-1.1602 0-2.3594 0.44141-3.2383 1.3594-1.8008 1.8008-1.8008 4.7188 0 6.4805 0.87891 0.87891 2.0781 1.3594 3.2383 1.3594s2.3594-0.44141 3.2383-1.3594c1.8008-1.8008 1.8008-4.7188 0-6.4805-0.875-0.91797-2.0781-1.3594-3.2383-1.3594zm-0.078125-26.039c-16.559 0-30 13.441-30 30 0 16.559 13.441 30 30 30s30-13.441 30-30c0-16.602-13.441-30-30-30zm15.801 22.441-5.7188 5.1602c0.28125 1 0.51953 2 0.51953 3.0391 0 2.8008-1.0781 5.4414-3.0781 7.3984-2 2-4.6016 3.0781-7.3984 3.0781-2.8008 0-5.4414-1.0781-7.3984-3.0781-2-2-3.0781-4.6016-3.0781-7.3984 0-2.8008 1.0781-5.4414 3.0781-7.3984 2-2 4.6016-3.0781 7.3984-3.0781 1.4414 0 2.8008 0.28125 4.0781 0.83984l5.6797-5.1211c1.8008-1.6406 4.6016-1.4805 6.2383 0.32031 1.5977 1.7969 1.4805 4.5977-0.32031 6.2383z"/>
  <path d="m72.398 25.398v-2.8008h6.1602c0.80078 0 1.4805-0.64062 1.4805-1.4805v-10.156c0-1.6406-1.3203-2.9609-2.9609-2.9609h-26.199c-1.6406 0-2.9609 1.3203-2.9609 2.9609v10.16c0 0.80078 0.67969 1.4805 1.4805 1.4805h6.1602v2.8008c-8.4414 1.5195-16.121 5.2383-22.398 10.559l-3.6406-3.6797c-1.1602-1.1602-3-1.1602-4.1602 0l-7.1992 7.1992c-1.1602 1.1602-1.1602 3 0 4.1602l4.6797 4.6797c-4.1211 7.0391-6.5195 15.199-6.5195 23.961 0 26.32 21.398 47.719 47.68 47.719s47.68-21.398 47.68-47.68c0-23.441-17-42.922-39.281-46.922zm-8.3984 84.281c-20.602 0-37.359-16.762-37.359-37.359 0-20.602 16.762-37.359 37.359-37.359 20.602 0 37.359 16.762 37.359 37.359 0 20.602-16.758 37.359-37.359 37.359z"/>
 </g>
</svg>
