<?xml version="1.0" encoding="UTF-8" standalone="no"?>
<!DOCTYPE svg PUBLIC "-//W3C//DTD SVG 1.1//EN" "http://www.w3.org/Graphics/SVG/1.1/DTD/svg11.dtd">
<svg width="100%" height="100%" viewBox="0 0 32 32" version="1.1" xmlns="http://www.w3.org/2000/svg" xmlns:xlink="http://www.w3.org/1999/xlink" xml:space="preserve" xmlns:serif="http://www.serif.com/" style="fill-rule:evenodd;clip-rule:evenodd;stroke-linejoin:round;stroke-miterlimit:2;">
    <rect id="Artboard1" x="0" y="0" width="32" height="32" style="fill:none;"/>
    <clipPath id="_clip1">
        <rect id="Artboard11" serif:id="Artboard1" x="0" y="0" width="32" height="32"/>
    </clipPath>
    <g clip-path="url(#_clip1)">
        <g>
            <g>
                <path d="M16,0C24.831,0 32,7.169 32,16C32,24.831 24.831,32 16,32C7.169,32 -0,24.831 -0,16C-0,7.169 7.169,0 16,0ZM23.069,9.385C22.635,9.817 21.988,10.374 21.151,10.81C21.44,11.312 21.664,11.881 21.82,12.513L22.137,13.814L20.769,14.06C20.721,14.07 20.272,14.147 19.644,14.147C18.204,14.147 16.978,13.762 16.063,13.049C15.155,14.124 13.877,14.712 12.358,14.712C12.038,14.712 11.702,14.686 11.363,14.633C10.799,14.548 10.351,14.12 10.25,13.57C10.176,13.156 10.275,12.325 10.679,11.454C9.889,11.222 9.046,10.776 8.265,9.965C6.199,11.898 4.915,14.596 4.915,17.585C4.915,23.462 9.879,28.229 16,28.229C22.122,28.229 27.085,23.462 27.085,17.585C27.085,14.285 25.522,11.339 23.069,9.385ZM6.617,18.468L9.48,18.468C9.449,19.091 9.47,19.727 9.561,20.368C9.855,22.474 10.776,24.35 12.112,25.853C9.313,24.349 7.228,21.698 6.617,18.468ZM22.596,7.967C22.596,7.967 22.38,8.256 21.987,8.628C21.8,8.807 21.569,9.005 21.302,9.2C21.262,9.229 21.219,9.259 21.176,9.291C20.984,9.425 20.775,9.556 20.551,9.673L20.224,9.834C20.042,9.914 19.852,9.986 19.654,10.045C19.596,10.064 19.534,10.08 19.475,10.096L19.468,10.096C19.403,10.115 19.339,10.128 19.272,10.141C19.141,10.171 19.005,10.192 18.866,10.206C19.572,10.687 20.203,11.489 20.524,12.805C20.524,12.805 19.435,13 18.28,12.709C18.2,12.69 18.122,12.666 18.042,12.642C17.176,12.372 16.314,11.802 15.879,10.649C15.857,10.719 15.833,10.788 15.806,10.861C15.78,10.933 15.75,11.008 15.721,11.083C15.595,11.385 15.429,11.706 15.207,12.011C15.151,12.085 15.092,12.16 15.034,12.233L14.731,12.553L14.729,12.553C14.657,12.62 14.579,12.687 14.499,12.749C14.459,12.781 14.416,12.813 14.373,12.84C14.29,12.898 14.199,12.955 14.108,13.008C13.477,13.358 12.654,13.538 11.571,13.372C11.498,13.361 11.637,11.224 13.509,10.235C13.41,10.259 13.311,10.28 13.207,10.302C13.114,10.318 13.015,10.334 12.918,10.35C12.851,10.358 12.785,10.366 12.72,10.371C12.557,10.387 12.391,10.395 12.223,10.395C12.194,10.395 12.162,10.395 12.132,10.393C12.129,10.395 12.124,10.393 12.121,10.393L11.798,10.374L11.445,10.323C11.325,10.299 11.204,10.272 11.084,10.235C11.001,10.211 10.921,10.184 10.838,10.152C10.06,9.874 9.292,9.315 8.618,8.326C8.567,8.248 10.961,6.422 13.611,7.633C13.616,7.636 13.624,7.638 13.632,7.644C13.721,7.684 13.806,7.727 13.892,7.772C13.742,6.63 14.049,5.237 15.469,3.771C15.469,3.771 16.895,5.178 17.114,6.991C17.122,7.071 17.133,7.152 17.138,7.235L17.143,7.617C17.207,7.579 17.274,7.542 17.341,7.507C17.368,7.494 17.395,7.478 17.421,7.467C17.491,7.43 17.563,7.395 17.638,7.363C17.641,7.36 17.644,7.36 17.646,7.36C17.825,7.28 18.012,7.21 18.21,7.152C19.361,6.812 20.845,6.865 22.596,7.967Z" style="fill:white;"/>
            </g>
        </g>
    </g>
</svg>
