<?xml version="1.0" encoding="UTF-8" standalone="no"?>
<!DOCTYPE svg PUBLIC "-//W3C//DTD SVG 1.1//EN" "http://www.w3.org/Graphics/SVG/1.1/DTD/svg11.dtd">
<svg width="100%" height="100%" viewBox="0 0 32 32" version="1.1" xmlns="http://www.w3.org/2000/svg" xmlns:xlink="http://www.w3.org/1999/xlink" xml:space="preserve" xmlns:serif="http://www.serif.com/" style="fill-rule:evenodd;clip-rule:evenodd;stroke-linejoin:round;stroke-miterlimit:2;">
    <path d="M16,0C24.831,0 32,7.169 32,16C32,24.831 24.831,32 16,32C7.169,32 0,24.831 0,16C0,7.169 7.169,0 16,0ZM16,2.947C8.84,2.947 2.947,8.84 2.947,16C2.947,23.16 8.84,29.053 16,29.053C23.16,29.053 29.053,23.16 29.053,16C29.053,8.84 23.16,2.947 16,2.947ZM20.286,23.453L12.802,23.453L12.802,21.714C14.003,21.714 14.603,21.398 14.603,20.764L14.603,15.332C14.603,14.683 14.003,14.358 12.802,14.358L12.802,12.661L18.483,12.661L18.483,20.754C18.454,21.391 19.057,21.707 20.286,21.707L20.286,23.453ZM14.562,8.401C14.672,8.149 14.831,7.922 15.029,7.732C15.226,7.541 15.456,7.387 15.708,7.278C15.964,7.166 16.242,7.108 16.522,7.109C16.81,7.107 17.095,7.164 17.36,7.278C17.613,7.385 17.844,7.539 18.039,7.732C18.23,7.925 18.384,8.152 18.493,8.401C18.608,8.661 18.666,8.943 18.663,9.228C18.666,9.516 18.608,9.802 18.493,10.066C18.385,10.322 18.231,10.555 18.039,10.755C17.846,10.954 17.615,11.112 17.36,11.22C17.096,11.335 16.81,11.393 16.522,11.39C16.238,11.393 15.957,11.335 15.697,11.22C15.183,10.994 14.774,10.582 14.551,10.066C14.437,9.802 14.38,9.516 14.381,9.228C14.383,8.943 14.444,8.661 14.562,8.401Z" style="fill:white;"/>
</svg>
