<?xml version="1.0" encoding="UTF-8" standalone="no"?>
<!DOCTYPE svg PUBLIC "-//W3C//DTD SVG 1.1//EN" "http://www.w3.org/Graphics/SVG/1.1/DTD/svg11.dtd">
<svg width="100%" height="100%" viewBox="0 0 49 49" version="1.1" xmlns="http://www.w3.org/2000/svg" xmlns:xlink="http://www.w3.org/1999/xlink" xml:space="preserve" xmlns:serif="http://www.serif.com/" style="fill-rule:evenodd;clip-rule:evenodd;stroke-linejoin:round;stroke-miterlimit:2;">
    <g transform="matrix(1,0,0,1,-200,-2655)">
        <g transform="matrix(0.743034,0,0,0.743034,65.7988,2421.11)">
            <g id="Left" transform="matrix(1,0,0,1,-84.0417,0)">
                <g id="Circle" transform="matrix(1.26471,0,0,1.26471,58.0046,-307.818)">
                    <circle cx="189.746" cy="518.219" r="25.302" style="fill:rgb(7,7,7);"/>
                </g>
                <g id="adrian-miasik-logo-2020-lt.svg" transform="matrix(0.0580833,0,0,0.0580833,297.978,346.231)">
                    <g transform="matrix(1,0,0,1,-347,-180.5)">
                        <g transform="matrix(1,0,0,1,-543.887,-359.92)">
                            <g>
                                <g id="Logo-Light" serif:id="Logo Light">
                                    <path id="_0-Light" serif:id="0 Light" d="M544.308,720L682.874,720L613.591,600L544.308,720Z" style="fill:rgb(255,33,33);"/>
                                    <path id="_1-Light" serif:id="1 Light" d="M821.441,720L682.874,480L752.158,360L960,720L821.441,720Z" style="fill:white;"/>
                                    <path id="_2-Light" serif:id="2 Light" d="M890.724,360L1098.57,720L1237.14,720L1029.28,360L890.724,360Z" style="fill:white;"/>
                                </g>
                            </g>
                        </g>
                    </g>
                </g>
            </g>
        </g>
    </g>
</svg>
