<svg width="75" height="75" viewBox="0 0 75 75" fill="none" xmlns="http://www.w3.org/2000/svg">
<g clip-path="url(#clip0_1_2)">
<g clip-path="url(#clip1_1_2)">
<path fill-rule="evenodd" clip-rule="evenodd" d="M37.5 0C58.1977 0 75 16.8023 75 37.5C75 58.1977 58.1977 75 37.5 75C16.8023 75 0 58.1977 0 37.5C0 16.8023 16.8023 0 37.5 0ZM37.5 6.90703C20.7188 6.90703 6.90703 20.7188 6.90703 37.5C6.90703 54.2812 20.7188 68.093 37.5 68.093C54.2812 68.093 68.093 54.2812 68.093 37.5C68.093 20.7188 54.2812 6.90703 37.5 6.90703Z" fill="white"/>
</g>
<path d="M55 36.6662C55 36.9592 54.8834 37.24 54.6757 37.4472C54.4679 37.654 54.1865 37.7703 53.893 37.7703H34.825C34.2134 37.7703 33.7181 37.2762 33.7181 36.6662C33.7181 36.0566 34.2135 35.5621 34.825 35.5621H53.893C54.1865 35.5621 54.4679 35.6784 54.6757 35.8856C54.8834 36.0924 55 36.3735 55 36.6662ZM34.825 24.412H53.8929C54.5042 24.412 54.9999 23.9175 54.9999 23.3079C54.9999 22.6979 54.5041 22.2038 53.8929 22.2038H34.825C34.2134 22.2038 33.718 22.6979 33.718 23.3079C33.718 23.9175 34.2134 24.412 34.825 24.412ZM28.4039 19.3968L23.8652 24.7366L22.0054 22.3073C21.8305 22.0655 21.5652 21.9042 21.2698 21.8606C20.9741 21.8167 20.6733 21.8938 20.4358 22.0744C20.198 22.255 20.0439 22.5242 20.008 22.8199C19.9721 23.1157 20.0575 23.4137 20.2451 23.6456L22.9398 27.1789C23.1417 27.4477 23.4552 27.6106 23.7919 27.6206H23.8209C24.1495 27.6164 24.4595 27.467 24.6665 27.212L30.0932 20.8189C30.489 20.3537 30.4314 19.6567 29.965 19.262C29.4986 18.8676 28.7997 18.925 28.404 19.3902L28.4039 19.3968ZM53.8928 48.9243H34.8249C34.2133 48.9243 33.7179 49.4183 33.7179 50.0283C33.7179 50.6379 34.2133 51.1324 34.8249 51.1324H53.8928C54.5041 51.1324 54.9998 50.6379 54.9998 50.0283C54.9998 49.4183 54.504 48.9243 53.8928 48.9243ZM29.9805 36.6661C29.9805 37.9831 29.4562 39.2463 28.5226 40.1774C27.5889 41.109 26.3229 41.6323 25.0024 41.6327C23.682 41.6331 22.4155 41.1105 21.4815 40.1794C20.5475 39.2486 20.0224 37.9859 20.0216 36.6692C20.0208 35.3522 20.5444 34.0887 21.4773 33.1571C22.4105 32.2252 23.6761 31.7007 24.9966 31.6995C26.3175 31.7003 27.5843 32.2236 28.5187 33.1549C29.4531 34.0861 29.9786 35.3488 29.9805 36.6662V36.6661ZM27.7666 36.6661C27.7654 35.9352 27.4732 35.2346 26.9542 34.7182C26.4357 34.2018 25.7326 33.9118 24.9998 33.9122C24.2666 33.9126 23.5639 34.2033 23.0456 34.7201C22.5275 35.237 22.236 35.9382 22.2356 36.6692C22.2352 37.4001 22.5259 38.1013 23.0433 38.6189C23.5611 39.1361 24.2638 39.4276 24.9967 39.4288C25.7314 39.4292 26.4364 39.1384 26.9558 38.6201C27.4755 38.1021 27.767 37.3989 27.7666 36.6661ZM29.9805 50.0333C29.9805 51.3507 29.4558 52.6139 28.5222 53.5455C27.5882 54.4766 26.3217 55 25.0008 55C23.6804 55 22.4139 54.4766 21.4799 53.5455C20.5459 52.6139 20.0216 51.3507 20.0216 50.0333C20.0216 48.7163 20.5459 47.4532 21.4799 46.5216C22.4139 45.5904 23.6804 45.0671 25.0008 45.0671C26.3206 45.0682 27.5858 45.5912 28.5191 46.5212C29.4527 47.4516 29.9782 48.7128 29.9805 50.0291V50.0333ZM27.7666 50.0333C27.767 49.302 27.4762 48.6004 26.9585 48.0828C26.4403 47.5652 25.7373 47.2737 25.004 47.273C24.2708 47.2722 23.5673 47.5622 23.048 48.0786C22.5287 48.595 22.2368 49.2963 22.2356 50.0276C22.2349 50.7589 22.5248 51.461 23.0426 51.9789C23.5604 52.4969 24.2635 52.7884 24.9967 52.7896C25.7311 52.79 26.4358 52.4996 26.955 51.982C27.4747 51.4641 27.7666 50.7616 27.7666 50.0291L27.7666 50.0333Z" fill="white"/>
</g>
<defs>
<clipPath id="clip0_1_2">
<rect width="75" height="75" fill="white"/>
</clipPath>
<clipPath id="clip1_1_2">
<rect width="75" height="75" fill="white"/>
</clipPath>
</defs>
</svg>
