<?xml version="1.0" encoding="UTF-8"?>
<svg width="128pt" height="128pt" version="1.1" viewBox="0 0 128 128" xmlns="http://www.w3.org/2000/svg">
 <path d="m118.53 33.801c-0.16797-0.046875-0.34375-0.074219-0.52734-0.074219h-5.3086c-3.2383 0-6.4766 0.77734-9.3594 2.2461-1.8398 0.9375-3.9883 1.0234-5.8945 0.23828-2.5039-1.0312-5.1406-1.5781-7.8438-1.625l-46.723-0.85938c-0.26953-0.015624-0.51953 0.03125-0.75 0.125-2.0898 0.44922-4.6172 2.2539-7.6523 5.4609-3.832 4.0508-8.0391 9.9141-11.848 16.508-2.5273 4.375-4.6758 8.7344-6.3047 12.738-10.988 0.18359-15.148 1.6016-15.496 5.5781-0.078125 0.91016 0.49219 1.75 1.3711 2.0117l7.0312 2.0664c-1.3359 1.8789-2.0742 4.3672-1.5078 6.8906 0.84375 3.7695 4.6484 8.3789 17.996 8.9062 4.3477 0.17188 8.3477 0.25781 12.004 0.25781 6.3125 0 11.578-0.25781 15.816-0.76953h64.477c0.17969 0 0.35547-0.023438 0.51953-0.070312 5.9531-1.3047 8.668-16.293 8.668-29.816-0.007813-13.516-2.7188-28.496-8.668-29.812zm-99.578 38.602c0.22656-0.62109 0.47266-1.2656 0.73828-1.9297 0.24609-0.62109 0.51172-1.2617 0.79688-1.9219 1.375-3.2031 3.1641-6.832 5.457-10.805 3.7422-6.4844 7.3672-11.387 10.348-14.746 0.81641-0.92188 1.5859-1.7266 2.2969-2.4141 0.875-0.84375 1.6523-1.5078 2.3242-1.9961 0.82031-0.59375 1.4688-0.92188 1.918-0.98438 0.027344-0.003907 0.058594-0.007813 0.085938-0.011719 0.046875-0.003906 0.10547-0.023438 0.14844-0.019531 0.074219 0.11719 0.12891 0.28906 0.17188 0.48828 0.003907 0.011719 0.003907 0.03125 0.003907 0.042969 0.15234 0.80469 0.035156 2.2344-0.41016 4.2031-0.38281 1.6875-1.0117 3.7695-1.918 6.1836-0.67578 1.7969-1.5078 3.7734-2.5117 5.9102-0.65625 1.3984-1.3867 2.8633-2.1953 4.3867-0.62891 1.1875-1.2891 2.3984-2.0117 3.6562-0.007812 0.015626-0.015624 0.03125-0.027343 0.046876-1.3242 2.293-2.6289 4.3711-3.9062 6.2695-0.4375 0.65234-0.86719 1.2773-1.2969 1.8828-0.46094 0.65234-0.91406 1.2773-1.3594 1.8789-5.1016 6.8398-9.2422 10.219-10.562 10.133-0.60547-0.92969-0.13281-4.6367 1.9102-10.254zm19.648 13.043c-0.011718 0.019532-0.019531 0.039063-0.03125 0.058594-0.26172 0.48828-0.80078 0.93359-1.5508 1.3086-1.4453 0.72656-3.6602 1.1914-6.1484 1.1914-1.168 0-2.2773-0.10547-3.2734-0.28906-0.64062 0.57422-2.5078 0.72656-4.7227 0.58203-2.7109-0.17578-2.2148-2.6055-1.6367-3.0977l-0.30859-0.14844-1.0039-0.48438c0.035157-0.68359 0.84375-0.85156 2.7031-0.79297 0.24609 0.007812 0.50391 0.015624 0.78906 0.03125 1.0586-1.25 3.9922-2.1523 7.4531-2.1523 1.8945 0 3.6289 0.26953 4.9883 0.71875 0.96094 0.31641 1.7305 0.72656 2.2344 1.1914 0.16406 0.15234 0.29297 0.3125 0.39844 0.47656 0.16016 0.25391 0.25781 0.51953 0.25781 0.79297 0 0.21094-0.054688 0.41406-0.14844 0.61328zm4.2344-5.082c-0.53906 0.046875-1.1992 0.03125-1.918-0.058593-0.30859-0.039063-0.625-0.085938-0.95312-0.14844-0.21875-0.042969-0.42578-0.09375-0.63672-0.14453-0.16406-0.039063-0.32031-0.085938-0.47656-0.12891-0.62109-0.17969-1.1758-0.39453-1.6133-0.62109-0.71875-0.375-1.1367-0.78125-1.0664-1.1289 0.050781-0.25391 0.34766-0.4375 0.82031-0.54687 0.17578-0.039063 0.375-0.070313 0.59375-0.085938 0.39062-0.035156 0.84766-0.035156 1.3438 0.003906 0.47656 0.035156 0.98828 0.10156 1.5195 0.20703 0.16016 0.03125 0.3125 0.070312 0.46875 0.10937 0.73047 0.17188 1.3867 0.39063 1.918 0.62891 0.91797 0.41406 1.4805 0.89062 1.4023 1.2852-0.066406 0.33984-0.60156 0.55469-1.4023 0.62891zm4.4062-8.9219c-0.046876 0.65625-0.10156 1.2852-0.15625 1.9062-0.082032 0.89844-0.17188 1.7695-0.27344 2.5977-0.55469-0.26562-1.2305-0.53516-2.0547-0.80859-0.56641-0.1875-1.207-0.37891-1.9219-0.57031-0.40625-0.10938-0.83203-0.22266-1.293-0.33594-0.20703-0.050781-0.41797-0.11328-0.62891-0.18359-0.84766-0.28125-1.6992-0.69922-2.5039-1.1094 0-0.011719-0.003906-0.023438-0.003906-0.039062-0.054688-0.62891-0.10547-1.2695-0.14844-1.9258-0.042968-0.63281-0.082031-1.2656-0.11328-1.9258-0.082031-1.7188-0.12891-3.5273-0.12891-5.4297v-0.14063c1.0352-1.832 2.0039-3.6523 2.8945-5.4492 0.6875-1.3867 1.3281-2.75 1.918-4.0859 0.72266-1.6367 1.3633-3.2227 1.9219-4.7422 0.41797-1.1406 0.79688-2.25 1.1133-3.3047 0.023438-0.074219 0.035157-0.13281 0.054688-0.20703 0.94141 4.543 1.5898 10.688 1.5898 17.922 0 2.0859-0.058593 4.0508-0.15234 5.9102-0.027344 0.66016-0.070313 1.2969-0.11328 1.9219zm70.535 18.223h-4.6641c2.1641-4.6523 2.9883-12.535 2.9883-18.863 0-1.0625-0.85937-1.9219-1.9219-1.9219-1.0586 0-1.9219 0.85938-1.9219 1.9219 0 10.629-2.1094 17.363-3.6445 18.863h-3.1836c1.2109-2.6133 1.9219-6.0664 2.3359-9.0039 0.14844-1.0508-0.58594-2.0195-1.6367-2.168-1.0391-0.14453-2.0195 0.58594-2.168 1.6367-0.85156 6.0703-2.2539 8.7773-3.0195 9.5391l-47.875-0.003907h-5.7031c1.9258-3.8281 3.0078-9.9961 3.5469-16.035 0.058594-0.63672 0.10938-1.2734 0.15625-1.9062 0.046875-0.64453 0.085938-1.2812 0.11719-1.9141 0.12109-2.1992 0.17188-4.3086 0.17188-6.1953 0-11.273-1.5117-20.973-3.9414-25.965l42.113 0.77344c2.2227 0.042969 4.3945 0.49219 6.4531 1.3398 0.51953 0.21484 1.0508 0.37109 1.5898 0.5 0.75 0.65234 2.2148 3.332 3.0977 9.6094 0.13672 0.96094 0.95703 1.6523 1.8984 1.6523 0.089844 0 0.17969-0.003907 0.26953-0.019532 1.0508-0.14844 1.7812-1.1172 1.6367-2.168-0.41016-2.918-1.1133-6.3516-2.3125-8.957 1.0039-0.19141 1.9922-0.51172 2.9258-0.98438 2.3477-1.1953 4.9844-1.8281 7.6172-1.8281h5.082c1.9414 0.5625 5.5742 10.008 5.5742 26.047-0.007813 16.043-3.6406 25.488-5.582 26.051zm-45.41-45.895c-7.8828 0-14.293 8.9062-14.293 19.848 0 2.4531 0.33594 4.793 0.92578 6.9648 0.1875 0.6875 0.39844 1.3594 0.63672 2.0117 0.25781 0.69531 0.53125 1.3789 0.84375 2.0234 2.5664 5.3281 6.9336 8.8477 11.887 8.8477 3.3359 0 6.4023-1.6094 8.8398-4.2812 0.42969-0.47266 0.84766-0.96484 1.2344-1.5039 0.36719-0.50781 0.71484-1.0508 1.043-1.6133 1.9844-3.4102 3.1797-7.7383 3.1797-12.453-0.003906-10.941-6.418-19.844-14.297-19.844zm6.3867 32.492c-0.48438 0.57812-1 1.0938-1.5469 1.5312-1.4492 1.1641-3.0938 1.832-4.8398 1.832-2.7578 0-5.2656-1.6562-7.1367-4.3438-0.44922-0.64453-0.85938-1.3516-1.2305-2.1094-0.32031-0.65625-0.61328-1.3438-0.86719-2.0703-0.77734-2.2344-1.2188-4.7812-1.2188-7.4844 0-8.8281 4.6875-16.008 10.453-16.008 5.7656 0 10.453 7.1797 10.453 16.008 0 4.2656-1.1016 8.1328-2.8828 11.008-0.36719 0.58984-0.76172 1.1367-1.1836 1.6367z" fill="#fff"/>
</svg>
