<?xml version="1.0" encoding="UTF-8"?>
<svg width="128pt" height="128pt" version="1.1" viewBox="0 0 128 128" xmlns="http://www.w3.org/2000/svg">
 <path d="m106.8 22.039c-11.078-3.9883-23.418-2.1445-32.84 4.9102-9.4258 7.0586-14.672 18.379-13.961 30.129v6.6016c-0.48047-0.55859-0.92188-1.1211-1.4414-1.6406-6.707-6.7109-16.344-9.5977-25.637-7.6797-1.5742 0.32031-2.8008 1.5508-3.1211 3.1211-1.707 8.3086 0.41016 16.941 5.7695 23.52 5.3594 6.5742 13.387 10.395 21.871 10.398h2.6016l-0.003907 12.602c0 2.2109 1.793 4 4 4 2.2109 0 4-1.7891 4-4v-41.922c9.6367 1.8594 19.605-0.45312 27.441-6.3594 9.4258-7.0469 14.676-18.367 13.961-30.117-0.082031-1.6133-1.125-3.0156-2.6406-3.5625zm-48 61.32c-5.8203 0.39453-11.527-1.7461-15.652-5.8711-4.1211-4.1211-6.2617-9.8281-5.8672-15.648 5.8164-0.39453 11.523 1.7461 15.648 5.8711s6.2656 9.8281 5.8711 15.648zm32-34.039c-6.5195 4.8945-14.902 6.5703-22.801 4.5586 0.33594-8.1016 4.3008-15.621 10.789-20.484 6.4883-4.8594 14.82-6.5469 22.691-4.5938-0.32422 8.1172-4.293 15.656-10.801 20.52z" fill="#fff"/>
</svg>
