<?xml version="1.0" encoding="UTF-8" standalone="no"?>
<!DOCTYPE svg PUBLIC "-//W3C//DTD SVG 1.1//EN" "http://www.w3.org/Graphics/SVG/1.1/DTD/svg11.dtd">
<svg width="100%" height="100%" viewBox="0 0 29 32" version="1.1" xmlns="http://www.w3.org/2000/svg" xmlns:xlink="http://www.w3.org/1999/xlink" xml:space="preserve" xmlns:serif="http://www.serif.com/" style="fill-rule:evenodd;clip-rule:evenodd;stroke-linejoin:round;stroke-miterlimit:2;">
    <g transform="matrix(1,0,0,1,-39,-42)">
        <g transform="matrix(0.90625,0,0,1,39,42)">
            <g id="Stem" transform="matrix(0.032174,0,0,0.0291577,-3.19747,-1.74609)">
                <path d="M892.68,248.16C892.68,248.16 882.961,261.121 865.332,277.801C856.934,285.84 846.602,294.723 834.602,303.481C832.813,304.801 830.883,306.122 828.961,307.559C820.321,313.559 810.961,319.438 800.883,324.719C798.364,326.039 795.962,327.36 793.325,328.559C791.044,329.758 788.633,330.84 786.231,331.918C778.071,335.52 769.551,338.758 760.672,341.399C758.031,342.239 755.285,342.957 752.633,343.68L752.281,343.68C749.402,344.52 746.52,345.121 743.52,345.719C737.641,347.039 731.52,348 725.282,348.598C756.962,370.2 785.282,406.2 799.669,465.238C799.669,465.238 750.841,474 698.989,460.918C695.387,460.078 691.911,458.996 688.309,457.918C649.43,445.797 610.789,420.238 591.231,368.52C590.27,371.641 589.192,374.758 587.992,378C586.793,381.239 585.473,384.602 584.153,387.961C578.512,401.52 571.075,415.922 561.114,429.602C558.594,432.962 555.953,436.321 553.313,439.563C550.672,442.922 547.672,446.165 544.434,449.282C542.875,450.84 541.313,452.282 539.754,453.962L539.633,453.962C536.395,456.962 532.914,459.962 529.313,462.723C527.512,464.165 525.594,465.602 523.672,466.801C519.954,469.442 515.872,471.962 511.793,474.36C483.473,490.079 446.512,498.122 397.913,490.68C394.675,490.199 400.913,394.321 484.913,349.92C480.472,350.998 476.035,351.959 471.354,352.92C467.155,353.639 462.714,354.361 458.393,355.08C455.393,355.439 452.393,355.799 449.515,356.041C442.194,356.76 434.753,357.119 427.195,357.119C425.874,357.119 424.433,357.119 423.116,356.998C422.995,357.119 422.757,356.998 422.636,356.998C420.597,356.998 418.675,356.877 416.636,356.76C415.316,356.76 413.874,356.639 412.558,356.521C411.116,356.4 409.679,356.283 408.116,356.162C404.515,355.803 400.796,355.322 397.077,354.721C395.519,354.361 393.839,354.119 392.277,353.881C386.878,352.803 381.476,351.6 376.078,349.92C372.359,348.842 368.757,347.639 365.039,346.201C330.117,333.721 295.68,308.642 265.437,264.24C263.155,260.76 370.557,178.799 489.477,233.162C489.715,233.283 490.078,233.4 490.438,233.643C494.399,235.443 498.238,237.361 502.079,239.404C495.36,188.166 509.157,125.644 572.88,59.884C572.88,59.884 636.841,123.005 646.669,204.364C647.028,207.966 647.508,211.564 647.762,215.286C648.001,218.525 648.11,221.767 648.11,225.005C648.11,227.404 648.11,229.927 647.989,232.447C650.868,230.767 653.868,229.087 656.868,227.525C658.067,226.923 659.266,226.204 660.469,225.724C663.591,224.044 666.829,222.486 670.188,221.044C670.321,220.923 670.442,220.923 670.548,220.923C678.587,217.321 686.989,214.204 695.868,211.564C747.481,196.322 814.078,198.72 892.678,248.162L892.68,248.16Z" style="fill:white;fill-rule:nonzero;"/>
            </g>
        </g>
    </g>
</svg>
