<?xml version="1.0" encoding="UTF-8" standalone="no"?>
<!DOCTYPE svg PUBLIC "-//W3C//DTD SVG 1.1//EN" "http://www.w3.org/Graphics/SVG/1.1/DTD/svg11.dtd">
<svg width="100%" height="100%" viewBox="0 0 29 32" version="1.1" xmlns="http://www.w3.org/2000/svg" xmlns:xlink="http://www.w3.org/1999/xlink" xml:space="preserve" xmlns:serif="http://www.serif.com/" style="fill-rule:evenodd;clip-rule:evenodd;stroke-linejoin:round;stroke-miterlimit:2;">
    <g transform="matrix(1,0,0,1,0,-42)">
        <g transform="matrix(0.771914,0,0,0.771914,2.14937,45.6494)">
            <g id="Cropped-Circle" serif:id="Cropped Circle" transform="matrix(1.29548,0,0,1.29548,-53.3082,-4.72769)">
                <path d="M48.454,4.963L53,7L58,5L59.254,5.237C64.398,7.381 68,12.312 68,18.047C68,25.748 61.503,32 53.5,32C45.497,32 39,25.748 39,18.047C39,12.053 42.936,6.937 48.454,4.963ZM48.401,7.131L52.182,8.825C52.677,9.047 53.24,9.058 53.743,8.857L58.202,7.073C58.202,7.073 58.67,7.162 58.67,7.162C62.98,9.041 66,13.203 66,18.047C66,24.666 60.378,30 53.5,30C46.622,30 41,24.666 41,18.047C41,13.175 44.053,8.995 48.401,7.131L48.401,7.131Z" style="fill:white;"/>
            </g>
        </g>
    </g>
</svg>
