<?xml version="1.0" encoding="UTF-8" standalone="no"?>
<!DOCTYPE svg PUBLIC "-//W3C//DTD SVG 1.1//EN" "http://www.w3.org/Graphics/SVG/1.1/DTD/svg11.dtd">
<svg width="100%" height="100%" viewBox="0 0 32 32" version="1.1" xmlns="http://www.w3.org/2000/svg" xmlns:xlink="http://www.w3.org/1999/xlink" xml:space="preserve" xmlns:serif="http://www.serif.com/" style="fill-rule:evenodd;clip-rule:evenodd;stroke-linejoin:round;stroke-miterlimit:2;">
    <path d="M16,0C24.831,0 32,7.169 32,16C32,24.831 24.831,32 16,32C7.169,32 0,24.831 0,16C0,7.169 7.169,0 16,0ZM27.495,14.091L25.625,13.888C24.918,13.812 24.337,13.332 24.059,12.674L24.059,12.649C23.781,11.992 23.857,11.233 24.312,10.702L25.499,9.26C25.676,9.033 25.676,8.704 25.448,8.502L23.528,6.58C23.326,6.377 22.998,6.352 22.771,6.529L21.331,7.692C20.775,8.148 20.017,8.223 19.36,7.945L19.335,7.945C18.678,7.667 18.198,7.085 18.122,6.377L17.92,4.506C17.895,4.228 17.642,4 17.364,4L14.636,4C14.358,4 14.105,4.228 14.08,4.506L13.878,6.377C13.802,7.085 13.322,7.667 12.665,7.945L12.64,7.945C11.983,8.223 11.225,8.148 10.669,7.692L9.229,6.529C9.002,6.352 8.674,6.352 8.472,6.58L6.552,8.502C6.349,8.704 6.324,9.033 6.501,9.26L7.688,10.702C8.143,11.258 8.219,11.992 7.941,12.649L7.941,12.674C7.663,13.332 7.082,13.812 6.375,13.888L4.505,14.091C4.227,14.116 4,14.369 4,14.647L4,17.378C4,17.656 4.227,17.909 4.505,17.935L6.375,18.137C7.082,18.213 7.663,18.693 7.941,19.351L7.941,19.376C8.219,20.034 8.143,20.792 7.688,21.323L6.501,22.765C6.324,22.993 6.324,23.321 6.552,23.524L8.472,25.446C8.674,25.648 9.002,25.673 9.229,25.496L10.669,24.308C11.225,23.852 11.958,23.777 12.615,24.055L12.64,24.055C13.297,24.333 13.777,24.915 13.853,25.623L14.055,27.494C14.08,27.772 14.333,28 14.611,28L17.339,28C17.617,28 17.869,27.772 17.895,27.494L18.097,25.623C18.173,24.915 18.653,24.333 19.309,24.055L19.335,24.055C19.992,23.777 20.749,23.852 21.28,24.308L22.72,25.496C22.947,25.673 23.276,25.673 23.478,25.446L25.398,23.524C25.6,23.321 25.625,22.993 25.448,22.765L24.312,21.323C23.857,20.767 23.781,20.034 24.059,19.376L24.059,19.351C24.337,18.693 24.918,18.213 25.625,18.137L27.495,17.935C27.773,17.909 28,17.656 28,17.378L28,14.647C28,14.369 27.773,14.116 27.495,14.091ZM16,20.185C13.701,20.185 11.832,18.314 11.832,16.013C11.832,13.711 13.701,11.84 16,11.84C18.299,11.84 20.168,13.711 20.168,16.013C20.168,18.314 18.299,20.185 16,20.185Z" style="fill:white;"/>
</svg>
