<?xml version="1.0" encoding="UTF-8" standalone="no"?>
<!DOCTYPE svg PUBLIC "-//W3C//DTD SVG 1.1//EN" "http://www.w3.org/Graphics/SVG/1.1/DTD/svg11.dtd">
<svg width="100%" height="100%" viewBox="0 0 32 32" version="1.1" xmlns="http://www.w3.org/2000/svg" xmlns:xlink="http://www.w3.org/1999/xlink" xml:space="preserve" xmlns:serif="http://www.serif.com/" style="fill-rule:evenodd;clip-rule:evenodd;stroke-linejoin:round;stroke-miterlimit:2;">
    <path d="M16,0C24.831,0 32,7.169 32,16C32,24.831 24.831,32 16,32C7.169,32 0,24.831 0,16C0,7.169 7.169,0 16,0ZM16,2.947C8.84,2.947 2.947,8.84 2.947,16C2.947,23.16 8.84,29.053 16,29.053C23.16,29.053 29.053,23.16 29.053,16C29.053,8.84 23.16,2.947 16,2.947Z" style="fill:white;"/>
    <g transform="matrix(0.0167085,0,0,0.0167085,7.649,5.97524)">
        <path d="M1063.8,829.39C1063.05,809.757 1063.24,790.054 1063.42,770.964C1063.52,762.394 1063.59,753.808 1063.59,745.257L1063.61,723.038L1063.61,716.776C1063.57,692.944 1063.52,668.327 1063.75,643.952C1033.42,636.585 1002.83,628.913 973.202,621.491C949.014,615.437 924.003,609.19 899.401,603.116C897.64,602.687 895.315,602.667 893.737,603.042C869.589,608.968 845.026,615.116 821.249,621.081C791.081,628.636 759.937,636.401 729.112,643.901L729.206,664.319C729.487,719.182 729.808,775.939 728.999,831.849C728.436,870.943 740.585,904.974 766.124,935.969C797.343,973.824 838.78,1003.45 896.384,1029.06C945.415,1007.67 984.282,981.532 1015.16,949.188C1049.61,913.11 1065.51,873.922 1063.8,829.388L1063.8,829.39ZM1005.71,749.89C990.882,768.921 975.995,787.913 961.222,806.964C937.148,837.995 913.183,869.12 889.054,900.112C875.48,917.55 864.546,917.362 851.648,899.698C830.293,870.487 808.953,841.272 787.636,812.042C780.437,802.159 780.511,791.96 787.73,785.269C794.929,778.593 805.261,779.249 814.429,787.183C830.085,800.757 845.648,814.445 861.284,828.038C863.795,830.233 866.495,832.202 871.651,836.269C873.674,833.007 875.006,829.612 877.37,827.229C910.296,794.081 943.296,761.002 976.503,728.135C980.085,724.592 984.733,721.217 989.46,719.94C997.295,717.839 1004.23,720.917 1008.28,728.303C1012.46,735.96 1010.9,743.213 1005.71,749.889L1005.71,749.89Z" style="fill:white;fill-rule:nonzero;"/>
        <path d="M1175.6,828.15C1175.13,816.13 1175.02,803.83 1175.02,791.548L1175.47,791.548L1175.45,699.767C1175.39,669.728 1175.33,638.681 1175.65,608.361C1176.07,571.33 1154.98,544.049 1119.22,535.369C1084.38,526.932 1048.88,518.045 1014.54,509.455L999.256,505.631C973.287,499.123 946.436,492.393 919.998,485.904C904.81,482.154 888.197,482.134 873.271,485.81C844.209,492.935 815.279,500.173 788.373,506.923C755.037,515.267 713.561,525.653 674.053,535.181C638.295,543.806 617.053,571.369 617.221,608.908L617.389,641.572C617.725,704.424 618.064,769.412 617.146,833.032C616.228,898.415 637.248,957.642 679.603,1009.09C725.314,1064.55 784.603,1107.01 866.223,1142.74C875.243,1146.68 885.555,1148.76 896.016,1148.76C906.778,1148.76 917.539,1146.59 927.18,1142.44C996.067,1112.78 1051.19,1075.69 1095.72,1029.06C1151.58,970.545 1178.45,902.931 1175.6,828.151L1175.6,828.15ZM1048.53,987.36C1008.91,1028.89 959.092,1062.62 896.39,1090.32C822.628,1057.15 769.4,1018.88 729.29,970.25C696.591,930.574 681.048,886.98 681.759,836.98C682.81,762.617 682.415,687.15 682.021,614.19L681.907,593.417C720.774,583.968 759.927,574.159 797.927,564.655C829.615,556.725 862.388,548.51 894.657,540.6C895.407,540.413 897.263,540.358 898.595,540.694C930.564,548.569 963.095,556.706 994.54,564.581C1032.58,574.104 1071.79,583.933 1110.84,593.476C1110.61,623.644 1110.67,654.019 1110.73,683.531L1110.73,685.199L1110.71,722.023C1110.71,733.386 1110.59,744.75 1110.48,756.109C1110.24,781.461 1109.97,807.671 1110.97,833.867C1113.17,890.828 1092.75,941.037 1048.52,987.367L1048.53,987.36Z" style="fill:white;fill-rule:nonzero;"/>
        <path d="M661.12,1076.6L100.7,1076.6L100.7,123.31L734.81,123.31L734.81,207.365C734.81,228.498 751.927,245.615 773.06,245.615L859.927,245.615L859.927,428.425C883.665,422.706 909.989,422.78 934.029,428.687C934.818,428.874 935.623,429.081 936.412,429.269L936.412,207.369C936.412,197.076 932.267,187.213 924.9,180.014L799.78,57.724C792.651,50.747 783.05,46.829 773.077,46.829L62.467,46.829C41.334,46.829 24.217,63.946 24.217,85.079L24.217,1114.88C24.217,1135.99 41.334,1153.13 62.467,1153.13L758.107,1153.13C721.072,1130.48 689.142,1105.26 661.111,1076.65L661.12,1076.6Z" style="fill:white;fill-rule:nonzero;"/>
        <path d="M308.23,333.96C308.23,366.858 281.562,393.526 248.664,393.526C215.762,393.526 189.094,366.858 189.094,333.96C189.094,301.062 215.762,274.39 248.664,274.39C281.562,274.39 308.23,301.062 308.23,333.96" style="fill:white;fill-rule:nonzero;"/>
        <path d="M747.806,357.7L370.35,357.7C357.245,357.7 346.612,347.067 346.612,333.962C346.612,320.857 357.245,310.224 370.35,310.224L747.81,310.224C760.915,310.224 771.548,320.857 771.548,333.962C771.544,347.067 760.915,357.7 747.806,357.7Z" style="fill:white;fill-rule:nonzero;"/>
        <path d="M308.23,511.31C308.23,544.208 281.562,570.88 248.664,570.88C215.762,570.88 189.094,544.208 189.094,511.31C189.094,478.412 215.762,451.74 248.664,451.74C281.562,451.74 308.23,478.412 308.23,511.31" style="fill:white;fill-rule:nonzero;"/>
        <path d="M308.23,688.69C308.23,721.588 281.562,748.26 248.664,748.26C215.762,748.26 189.094,721.588 189.094,688.69C189.094,655.792 215.762,629.12 248.664,629.12C281.562,629.12 308.23,655.792 308.23,688.69" style="fill:white;fill-rule:nonzero;"/>
        <path d="M308.23,866.04C308.23,898.938 281.562,925.61 248.664,925.61C215.762,925.61 189.094,898.938 189.094,866.04C189.094,833.142 215.762,806.474 248.664,806.474C281.562,806.474 308.23,833.142 308.23,866.04" style="fill:white;fill-rule:nonzero;"/>
        <path d="M632.72,487.57L370.35,487.57C357.245,487.57 346.612,498.203 346.612,511.308C346.612,524.413 357.245,535.046 370.35,535.046L578.74,535.046C591.564,514.683 609.994,498.296 632.72,487.569L632.72,487.57Z" style="fill:white;fill-rule:nonzero;"/>
        <path d="M558.56,664.95L370.35,664.95C357.245,664.95 346.612,675.583 346.612,688.688C346.612,701.793 357.245,712.426 370.35,712.426L558.75,712.426C558.695,696.524 558.637,680.68 558.562,664.949L558.56,664.95Z" style="fill:white;fill-rule:nonzero;"/>
        <path d="M558.23,842.3L370.35,842.3C357.245,842.3 346.612,852.933 346.612,866.038C346.612,879.143 357.245,889.776 370.35,889.776L562.24,889.776C559.783,874.288 558.451,858.464 558.228,842.299L558.23,842.3Z" style="fill:white;fill-rule:nonzero;"/>
    </g>
</svg>
