<svg clip-rule="evenodd" fill-rule="evenodd" stroke-linejoin="round" stroke-miterlimit="2" viewBox="0 0 22 29" xmlns="http://www.w3.org/2000/svg"><g fill="#fff"><path d="m313.845 483.881c0-.552-1.408-1-3.144-1-4.857 0-14.129 0-18.986 0-1.736 0-3.144.448-3.144 1v26.076c0 .552 1.408 1 3.144 1h18.986c1.736 0 3.144-.448 3.144-1 0-4.364 0-21.713 0-26.076z" transform="matrix(-.31800889467 0 0 1 112.808421839 -482.869)"/><path d="m313.845 483.881c0-.552-1.408-1-3.144-1-4.857 0-14.129 0-18.986 0-1.736 0-3.144.448-3.144 1v26.076c0 .552 1.408 1 3.144 1h18.986c1.736 0 3.144-.448 3.144-1 0-4.364 0-21.713 0-26.076z" transform="matrix(-.31800889467 0 0 1 100.448650184 -482.869)"/></g></svg>