<?xml version="1.0" encoding="UTF-8"?>
<svg width="1200pt" height="1200pt" version="1.1" viewBox="0 0 1200 1200" xmlns="http://www.w3.org/2000/svg">
 <g fill="#fff">
  <path d="m1038 176.4h-277.2v-102c0-24-19.199-44.398-44.398-44.398h-232.8c-24 0-44.398 19.199-44.398 44.398v102h-277.2c-24 0-44.398 19.199-44.398 44.398v175.2c0 24 19.199 44.398 44.398 44.398h44.398v686.4c0 24 19.199 44.398 44.398 44.398h702c24 0 44.398-19.199 44.398-44.398l0.003907-687.59h44.398c24 0 44.398-19.199 44.398-44.398l0.003906-175.2c-3.6016-24-22.801-43.203-48-43.203zm-511.2-58.797h146.4v58.801l-146.4-0.003906zm380.4 964.8h-614.4v-643.2h614.4zm87.602-730.8h-789.6v-87.602h789.6z"/>
  <path d="m483.6 980.4c24 0 44.398-19.199 44.398-44.398v-351.6c0-24-19.199-44.398-44.398-44.398-24 0-44.398 19.199-44.398 44.398v352.8c-0.003906 24 19.195 43.199 44.398 43.199z"/>
  <path d="m716.4 980.4c24 0 44.398-19.199 44.398-44.398l0.003906-351.6c0-24-19.199-44.398-44.398-44.398-24 0-44.398 19.199-44.398 44.398v352.8c1.1953 24 20.395 43.199 44.395 43.199z"/>
 </g>
</svg>
