<?xml version="1.0" encoding="UTF-8"?>
<svg width="1200pt" height="1200pt" version="1.1" viewBox="0 0 1200 1200" xmlns="http://www.w3.org/2000/svg">
 <g fill="#fff">
  <path d="m633.6 151.2c222 15.602 402 196.8 415.2 420 15.602 261.6-190.8 478.8-448.8 478.8-177.6 0-331.2-103.2-404.4-253.2-3.6016-6-9.6016-10.801-16.801-10.801h-90c-13.199 0-21.602 13.199-16.801 25.199 86.398 217.2 303.6 369.6 555.6 357.6 283.2-13.199 516-237.6 540-519.6 28.797-336-236.4-619.2-566.4-619.2-238.8 0-445.2 148.8-529.2 358.8-4.8008 12 3.6016 25.199 16.801 25.199h91.199c7.1992 0 13.199-3.6016 16.801-10.801 76.801-158.4 246-265.2 436.8-252z"/>
  <path d="m64.801 690h416.4v139.2c0 15.602 8.3984 28.801 21.602 36 13.199 7.1992 30 4.8008 42-3.6016l309.6-229.2c9.6016-7.1992 15.602-19.199 15.602-32.398s-6-24-15.602-32.398l-309.6-229.2c-7.1992-4.8008-15.602-8.3984-24-8.3984-6 0-12 1.1992-18 4.8008-13.199 7.1992-21.602 20.398-21.602 36v139.2h-416.4c-19.199 0-34.801 15.602-34.801 34.801v110.4c0 19.199 15.602 34.801 34.801 34.801z"/>
 </g>
</svg>
