<?xml version="1.0" encoding="UTF-8" standalone="no"?>
<!DOCTYPE svg PUBLIC "-//W3C//DTD SVG 1.1//EN" "http://www.w3.org/Graphics/SVG/1.1/DTD/svg11.dtd">
<svg width="100%" height="100%" viewBox="0 0 29 32" version="1.1" xmlns="http://www.w3.org/2000/svg" xmlns:xlink="http://www.w3.org/1999/xlink" xml:space="preserve" xmlns:serif="http://www.serif.com/" style="fill-rule:evenodd;clip-rule:evenodd;stroke-linejoin:round;stroke-miterlimit:2;">
    <g transform="matrix(1,0,0,1,0,-42)">
        <g transform="matrix(0.771914,0,0,0.771914,2.14937,45.6494)">
            <g id="Full-Circle" serif:id="Full Circle" transform="matrix(1.29548,0,0,1.24887,-2.78447,-3.2362)">
                <path d="M14.5,3C22.503,3 29,9.497 29,17.5C29,25.503 22.503,32 14.5,32C6.497,32 0,25.503 0,17.5C0,9.497 6.497,3 14.5,3ZM14.5,5.075C21.379,5.075 27,10.621 27,17.5C27,24.379 21.379,29.925 14.5,29.925C7.621,29.925 2,24.379 2,17.5C2,10.621 7.621,5.075 14.5,5.075Z" style="fill:white;"/>
            </g>
        </g>
    </g>
</svg>
