<?xml version="1.0" encoding="UTF-8" standalone="no"?>
<!DOCTYPE svg PUBLIC "-//W3C//DTD SVG 1.1//EN" "http://www.w3.org/Graphics/SVG/1.1/DTD/svg11.dtd">
<svg width="100%" height="100%" viewBox="0 0 29 32" version="1.1" xmlns="http://www.w3.org/2000/svg" xmlns:xlink="http://www.w3.org/1999/xlink" xml:space="preserve" xmlns:serif="http://www.serif.com/" style="fill-rule:evenodd;clip-rule:evenodd;stroke-linejoin:round;stroke-miterlimit:2;">
    <g transform="matrix(1,0,0,1,-39,-42)">
        <g transform="matrix(0.90625,0,0,1,39,42)">
            <g id="Full-Body" serif:id="Full Body" transform="matrix(1.10345,0,0,1,-43.0345,-7.10543e-15)">
                <path d="M53.5,4.043C61.503,4.043 68,10.307 68,18.022C68,25.737 61.503,32 53.5,32C45.497,32 39,25.737 39,18.022C39,10.307 45.497,4.043 53.5,4.043ZM41.224,19.229L44.968,19.229C44.929,20.045 44.956,20.876 45.075,21.715C45.46,24.47 46.664,26.926 48.413,28.891C44.75,26.924 42.022,23.455 41.224,19.229L41.224,19.229Z" style="fill:white;"/>
            </g>
        </g>
    </g>
</svg>
